<svg width="282" height="49" viewBox="0 0 282 49" fill="none" xmlns="http://www.w3.org/2000/svg">
<g filter="url(#filter0_d_1_3)">
<path d="M18.4573 40H4.53542V0.727272H18.5724C22.5226 0.727272 25.9232 1.51349 28.7741 3.08594C31.6249 4.64559 33.8174 6.8892 35.3515 9.81676C36.8984 12.7443 37.6718 16.2472 37.6718 20.3253C37.6718 24.4162 36.8984 27.9318 35.3515 30.8722C33.8174 33.8125 31.6121 36.0689 28.7357 37.6413C25.8721 39.2138 22.4459 40 18.4573 40ZM12.8387 32.8857H18.1121C20.5667 32.8857 22.6313 32.451 24.306 31.5817C25.9935 30.6996 27.2591 29.3381 28.1029 27.4972C28.9594 25.6435 29.3877 23.2528 29.3877 20.3253C29.3877 17.4233 28.9594 15.0518 28.1029 13.2109C27.2591 11.37 25.9999 10.0149 24.3252 9.14559C22.6505 8.27628 20.5858 7.84162 18.1313 7.84162H12.8387V32.8857ZM48.3769 40H39.4791L53.0367 0.727272H63.737L77.2753 40H68.3776L58.5402 9.7017H58.2334L48.3769 40ZM47.8208 24.5632H68.8378V31.0447H47.8208V24.5632ZM75.7077 7.57315V0.727272H107.962V7.57315H95.9385V40H87.7311V7.57315H75.7077ZM115.244 40H106.346L119.904 0.727272H130.604L144.142 40H135.245L125.407 9.7017H125.101L115.244 40ZM114.688 24.5632H135.705V31.0447H114.688V24.5632ZM148.869 40V0.727272H157.173V33.1541H174.009V40H148.869ZM187.279 40H178.381L191.939 0.727272H202.639L216.178 40H207.28L197.443 9.7017H197.136L187.279 40ZM186.723 24.5632H207.74V31.0447H186.723V24.5632ZM220.905 40V0.727272H236.629C239.518 0.727272 241.928 1.15554 243.858 2.01207C245.789 2.86861 247.24 4.05753 248.211 5.57883C249.183 7.08736 249.669 8.82599 249.669 10.7947C249.669 12.3288 249.362 13.6776 248.748 14.8409C248.135 15.9915 247.291 16.9375 246.217 17.679C245.156 18.4077 243.941 18.9254 242.574 19.2322V19.6158C244.069 19.6797 245.469 20.1016 246.773 20.8814C248.09 21.6612 249.157 22.7543 249.976 24.1605C250.794 25.554 251.203 27.2159 251.203 29.1463C251.203 31.2301 250.685 33.0902 249.65 34.7266C248.627 36.3501 247.112 37.6349 245.105 38.581C243.098 39.527 240.624 40 237.684 40H220.905ZM229.208 33.2116H235.977C238.291 33.2116 239.978 32.7706 241.04 31.8885C242.101 30.9936 242.631 29.8047 242.631 28.3217C242.631 27.2351 242.369 26.2763 241.845 25.4453C241.321 24.6143 240.573 23.9624 239.601 23.4893C238.642 23.0163 237.498 22.7798 236.169 22.7798H229.208V33.2116ZM229.208 17.1612H235.363C236.501 17.1612 237.511 16.9631 238.393 16.5668C239.288 16.1577 239.991 15.5824 240.503 14.8409C241.027 14.0994 241.289 13.2109 241.289 12.1754C241.289 10.7564 240.784 9.61222 239.774 8.7429C238.777 7.87358 237.358 7.43892 235.517 7.43892H229.208V17.1612ZM277.489 17.0078L274.363 17.8899C274.056 17.0078 273.621 16.2088 273.059 15.4929C272.496 14.777 271.761 14.2081 270.854 13.7862C269.959 13.3643 268.847 13.1534 267.517 13.1534C265.523 13.1534 263.886 13.6264 262.608 14.5724C261.329 15.5185 260.69 16.7393 260.69 18.2351C260.69 19.5007 261.125 20.5298 261.994 21.3224C262.876 22.1023 264.231 22.7223 266.06 23.1825L270.508 24.2756C272.976 24.8764 274.823 25.8288 276.05 27.1328C277.29 28.4368 277.91 30.0732 277.91 32.0419C277.91 33.7038 277.45 35.1804 276.53 36.4716C275.609 37.7628 274.324 38.7791 272.675 39.5206C271.039 40.2493 269.141 40.6136 266.98 40.6136C264.104 40.6136 261.732 39.968 259.866 38.6768C257.999 37.3729 256.804 35.4936 256.28 33.0391L259.559 32.2337C259.981 33.9851 260.805 35.3082 262.033 36.2031C263.273 37.098 264.903 37.5455 266.922 37.5455C269.185 37.5455 270.994 37.0405 272.349 36.0305C273.704 35.0078 274.382 33.7294 274.382 32.1953C274.382 31.0064 273.986 30.0092 273.193 29.2038C272.4 28.3857 271.199 27.7848 269.588 27.4013L264.775 26.2507C262.218 25.6371 260.326 24.6655 259.099 23.3359C257.871 22.0064 257.258 20.3572 257.258 18.3885C257.258 16.7649 257.699 15.3395 258.581 14.1122C259.463 12.8722 260.677 11.9006 262.224 11.1974C263.771 10.4943 265.535 10.1428 267.517 10.1428C270.214 10.1428 272.369 10.7564 273.979 11.9837C275.603 13.1982 276.773 14.8729 277.489 17.0078Z" fill="white"/>
<path d="M4.53542 40H3.53542V41H4.53542V40ZM4.53542 0.727272V-0.272728H3.53542V0.727272H4.53542ZM28.7741 3.08594L28.2911 3.96158L28.2941 3.96323L28.7741 3.08594ZM35.3515 9.81676L34.4657 10.2809L34.4673 10.2839L35.3515 9.81676ZM35.3515 30.8722L34.4665 30.4066L34.4649 30.4096L35.3515 30.8722ZM28.7357 37.6413L28.256 36.7639L28.2544 36.7648L28.7357 37.6413ZM12.8387 32.8857H11.8387V33.8857H12.8387V32.8857ZM24.306 31.5817L24.7667 32.4692L24.7693 32.4679L24.306 31.5817ZM28.1029 27.4972L27.1951 27.0777L27.1938 27.0805L28.1029 27.4972ZM28.1029 13.2109L27.1938 13.6276L27.1962 13.6328L28.1029 13.2109ZM24.3252 9.14559L24.7859 8.25805L24.7859 8.25805L24.3252 9.14559ZM12.8387 7.84162V6.84162H11.8387V7.84162H12.8387ZM18.4573 39H4.53542V41H18.4573V39ZM5.53542 40V0.727272H3.53542V40H5.53542ZM4.53542 1.72727H18.5724V-0.272728H4.53542V1.72727ZM18.5724 1.72727C22.3895 1.72727 25.6166 2.48641 28.2911 3.96157L29.257 2.2103C26.2298 0.540576 22.6557 -0.272728 18.5724 -0.272728V1.72727ZM28.2941 3.96323C30.9688 5.42651 33.0215 7.5249 34.4657 10.2809L36.2372 9.35261C34.6132 6.2535 32.281 3.86468 29.254 2.20864L28.2941 3.96323ZM34.4673 10.2839C35.9225 13.0379 36.6718 16.3728 36.6718 20.3253H38.6718C38.6718 16.1215 37.8742 12.4507 36.2356 9.34958L34.4673 10.2839ZM36.6718 20.3253C36.6718 24.2909 35.9223 27.6393 34.4665 30.4066L36.2365 31.3377C37.8744 28.2243 38.6718 24.5414 38.6718 20.3253H36.6718ZM34.4649 30.4096C33.0212 33.1766 30.9566 35.2876 28.256 36.7639L29.2154 38.5188C32.2677 36.8502 34.6135 34.4484 36.2381 31.3347L34.4649 30.4096ZM28.2544 36.7648C25.5675 38.2402 22.3145 39 18.4573 39V41C22.5774 41 26.1766 40.1874 29.217 38.5179L28.2544 36.7648ZM12.8387 33.8857H18.1121V31.8857H12.8387V33.8857ZM18.1121 33.8857C20.6804 33.8857 22.9134 33.4313 24.7667 32.4692L23.8453 30.6941C22.3492 31.4707 20.4529 31.8857 18.1121 31.8857V33.8857ZM24.7693 32.4679C26.6663 31.4763 28.0821 29.9427 29.012 27.9138L27.1938 27.0805C26.4362 28.7335 25.3208 29.9229 23.8428 30.6955L24.7693 32.4679ZM29.0107 27.9166C29.9484 25.8872 30.3877 23.3395 30.3877 20.3253H28.3877C28.3877 23.1662 27.9705 25.3997 27.1951 27.0777L29.0107 27.9166ZM30.3877 20.3253C30.3877 17.3356 29.9481 14.8062 29.0096 12.7891L27.1962 13.6328C27.9708 15.2975 28.3877 17.511 28.3877 20.3253H30.3877ZM29.012 12.7943C28.0826 10.7667 26.6733 9.23775 24.7859 8.25805L23.8645 10.0331C25.3265 10.7921 26.4356 11.9734 27.1938 13.6276L29.012 12.7943ZM24.7859 8.25805C22.9325 7.29599 20.6996 6.84162 18.1313 6.84162V8.84162C20.4721 8.84162 22.3684 9.25656 23.8645 10.0331L24.7859 8.25805ZM18.1313 6.84162H12.8387V8.84162H18.1313V6.84162ZM11.8387 7.84162V32.8857H13.8387V7.84162H11.8387ZM48.3769 40V41H49.1031L49.3278 40.3094L48.3769 40ZM39.4791 40L38.5339 39.6737L38.076 41H39.4791V40ZM53.0367 0.727272V-0.272728H52.324L52.0914 0.400954L53.0367 0.727272ZM63.737 0.727272L64.6824 0.401366L64.45 -0.272728H63.737V0.727272ZM77.2753 40V41H78.6778L78.2207 39.6741L77.2753 40ZM68.3776 40L67.4265 40.3088L67.6509 41H68.3776V40ZM58.5402 9.7017L59.4913 9.39289L59.2669 8.7017H58.5402V9.7017ZM58.2334 9.7017V8.7017H57.5071L57.2825 9.39235L58.2334 9.7017ZM47.8208 24.5632V23.5632H46.8208V24.5632H47.8208ZM68.8378 24.5632H69.8378V23.5632H68.8378V24.5632ZM68.8378 31.0447V32.0447H69.8378V31.0447H68.8378ZM47.8208 31.0447H46.8208V32.0447H47.8208V31.0447ZM48.3769 39H39.4791V41H48.3769V39ZM40.4244 40.3263L53.9819 1.05359L52.0914 0.400954L38.5339 39.6737L40.4244 40.3263ZM53.0367 1.72727H63.737V-0.272728H53.0367V1.72727ZM62.7915 1.05318L76.3299 40.3259L78.2207 39.6741L64.6824 0.401366L62.7915 1.05318ZM77.2753 39H68.3776V41H77.2753V39ZM69.3287 39.6912L59.4913 9.39289L57.5891 10.0105L67.4265 40.3088L69.3287 39.6912ZM58.5402 8.7017H58.2334V10.7017H58.5402V8.7017ZM57.2825 9.39235L47.4259 39.6906L49.3278 40.3094L59.1843 10.0111L57.2825 9.39235ZM47.8208 25.5632H68.8378V23.5632H47.8208V25.5632ZM67.8378 24.5632V31.0447H69.8378V24.5632H67.8378ZM68.8378 30.0447H47.8208V32.0447H68.8378V30.0447ZM48.8208 31.0447V24.5632H46.8208V31.0447H48.8208ZM75.7077 7.57315H74.7077V8.57315H75.7077V7.57315ZM75.7077 0.727272V-0.272728H74.7077V0.727272H75.7077ZM107.962 0.727272H108.962V-0.272728H107.962V0.727272ZM107.962 7.57315V8.57315H108.962V7.57315H107.962ZM95.9385 7.57315V6.57315H94.9385V7.57315H95.9385ZM95.9385 40V41H96.9385V40H95.9385ZM87.7311 40H86.7311V41H87.7311V40ZM87.7311 7.57315H88.7311V6.57315H87.7311V7.57315ZM76.7077 7.57315V0.727272H74.7077V7.57315H76.7077ZM75.7077 1.72727H107.962V-0.272728H75.7077V1.72727ZM106.962 0.727272V7.57315H108.962V0.727272H106.962ZM107.962 6.57315H95.9385V8.57315H107.962V6.57315ZM94.9385 7.57315V40H96.9385V7.57315H94.9385ZM95.9385 39H87.7311V41H95.9385V39ZM88.7311 40V7.57315H86.7311V40H88.7311ZM87.7311 6.57315H75.7077V8.57315H87.7311V6.57315ZM115.244 40V41H115.97L116.195 40.3094L115.244 40ZM106.346 40L105.401 39.6737L104.943 41H106.346V40ZM119.904 0.727272V-0.272728H119.191L118.959 0.400954L119.904 0.727272ZM130.604 0.727272L131.55 0.401366L131.317 -0.272728H130.604V0.727272ZM144.142 40V41H145.545L145.088 39.6741L144.142 40ZM135.245 40L134.294 40.3088L134.518 41H135.245V40ZM125.407 9.7017L126.359 9.39289L126.134 8.7017H125.407V9.7017ZM125.101 9.7017V8.7017H124.374L124.15 9.39235L125.101 9.7017ZM114.688 24.5632V23.5632H113.688V24.5632H114.688ZM135.705 24.5632H136.705V23.5632H135.705V24.5632ZM135.705 31.0447V32.0447H136.705V31.0447H135.705ZM114.688 31.0447H113.688V32.0447H114.688V31.0447ZM115.244 39H106.346V41H115.244V39ZM107.292 40.3263L120.849 1.05359L118.959 0.400954L105.401 39.6737L107.292 40.3263ZM119.904 1.72727H130.604V-0.272728H119.904V1.72727ZM129.659 1.05318L143.197 40.3259L145.088 39.6741L131.55 0.401366L129.659 1.05318ZM144.142 39H135.245V41H144.142V39ZM136.196 39.6912L126.359 9.39289L124.456 10.0105L134.294 40.3088L136.196 39.6912ZM125.407 8.7017H125.101V10.7017H125.407V8.7017ZM124.15 9.39235L114.293 39.6906L116.195 40.3094L126.052 10.0111L124.15 9.39235ZM114.688 25.5632H135.705V23.5632H114.688V25.5632ZM134.705 24.5632V31.0447H136.705V24.5632H134.705ZM135.705 30.0447H114.688V32.0447H135.705V30.0447ZM115.688 31.0447V24.5632H113.688V31.0447H115.688ZM148.869 40H147.869V41H148.869V40ZM148.869 0.727272V-0.272728H147.869V0.727272H148.869ZM157.173 0.727272H158.173V-0.272728H157.173V0.727272ZM157.173 33.1541H156.173V34.1541H157.173V33.1541ZM174.009 33.1541H175.009V32.1541H174.009V33.1541ZM174.009 40V41H175.009V40H174.009ZM149.869 40V0.727272H147.869V40H149.869ZM148.869 1.72727H157.173V-0.272728H148.869V1.72727ZM156.173 0.727272V33.1541H158.173V0.727272H156.173ZM157.173 34.1541H174.009V32.1541H157.173V34.1541ZM173.009 33.1541V40H175.009V33.1541H173.009ZM174.009 39H148.869V41H174.009V39ZM187.279 40V41H188.005L188.23 40.3094L187.279 40ZM178.381 40L177.436 39.6737L176.978 41H178.381V40ZM191.939 0.727272V-0.272728H191.226L190.994 0.400954L191.939 0.727272ZM202.639 0.727272L203.585 0.401366L203.352 -0.272728H202.639V0.727272ZM216.178 40V41H217.58L217.123 39.6741L216.178 40ZM207.28 40L206.329 40.3088L206.553 41H207.28V40ZM197.443 9.7017L198.394 9.39289L198.169 8.7017H197.443V9.7017ZM197.136 9.7017V8.7017H196.409L196.185 9.39235L197.136 9.7017ZM186.723 24.5632V23.5632H185.723V24.5632H186.723ZM207.74 24.5632H208.74V23.5632H207.74V24.5632ZM207.74 31.0447V32.0447H208.74V31.0447H207.74ZM186.723 31.0447H185.723V32.0447H186.723V31.0447ZM187.279 39H178.381V41H187.279V39ZM179.327 40.3263L192.884 1.05359L190.994 0.400954L177.436 39.6737L179.327 40.3263ZM191.939 1.72727H202.639V-0.272728H191.939V1.72727ZM201.694 1.05318L215.232 40.3259L217.123 39.6741L203.585 0.401366L201.694 1.05318ZM216.178 39H207.28V41H216.178V39ZM208.231 39.6912L198.394 9.39289L196.491 10.0105L206.329 40.3088L208.231 39.6912ZM197.443 8.7017H197.136V10.7017H197.443V8.7017ZM196.185 9.39235L186.328 39.6906L188.23 40.3094L198.087 10.0111L196.185 9.39235ZM186.723 25.5632H207.74V23.5632H186.723V25.5632ZM206.74 24.5632V31.0447H208.74V24.5632H206.74ZM207.74 30.0447H186.723V32.0447H207.74V30.0447ZM187.723 31.0447V24.5632H185.723V31.0447H187.723ZM220.905 40H219.905V41H220.905V40ZM220.905 0.727272V-0.272728H219.905V0.727272H220.905ZM243.858 2.01207L243.453 2.92613L243.453 2.92613L243.858 2.01207ZM248.211 5.57883L247.369 6.11709L247.371 6.12031L248.211 5.57883ZM248.748 14.8409L249.631 15.3115L249.633 15.3075L248.748 14.8409ZM246.217 17.679L246.783 18.5033L246.785 18.5019L246.217 17.679ZM242.574 19.2322L242.355 18.2565L241.574 18.4317V19.2322H242.574ZM242.574 19.6158H241.574V20.5739L242.531 20.6149L242.574 19.6158ZM246.773 20.8814L246.26 21.7396L246.264 21.7418L246.773 20.8814ZM249.976 24.1605L249.111 24.6634L249.113 24.6668L249.976 24.1605ZM249.65 34.7266L248.805 34.1918L248.803 34.1936L249.65 34.7266ZM245.105 38.581L244.678 37.6764L244.678 37.6764L245.105 38.581ZM229.208 33.2116H228.208V34.2116H229.208V33.2116ZM241.04 31.8885L241.679 32.6575L241.684 32.6529L241.04 31.8885ZM241.845 25.4453L240.999 25.9788L240.999 25.9788L241.845 25.4453ZM239.601 23.4893L239.159 24.3862L239.164 24.3885L239.601 23.4893ZM229.208 22.7798V21.7798H228.208V22.7798H229.208ZM229.208 17.1612H228.208V18.1612H229.208V17.1612ZM238.393 16.5668L238.803 17.4789L238.809 17.4762L238.393 16.5668ZM240.503 14.8409L239.686 14.2636L239.679 14.2732L240.503 14.8409ZM239.774 8.7429L239.117 9.49668L239.122 9.5008L239.774 8.7429ZM229.208 7.43892V6.43892H228.208V7.43892H229.208ZM221.905 40V0.727272H219.905V40H221.905ZM220.905 1.72727H236.629V-0.272728H220.905V1.72727ZM236.629 1.72727C239.427 1.72727 241.688 2.14305 243.453 2.92613L244.264 1.09801C242.168 0.168032 239.61 -0.272728 236.629 -0.272728V1.72727ZM243.453 2.92613C245.235 3.71687 246.52 4.78783 247.369 6.11708L249.054 5.04058C247.96 3.32722 246.343 2.02035 244.264 1.09801L243.453 2.92613ZM247.371 6.12031C248.228 7.45182 248.669 8.99865 248.669 10.7947H250.669C250.669 8.65334 250.138 6.72289 249.052 5.03736L247.371 6.12031ZM248.669 10.7947C248.669 12.1934 248.39 13.377 247.864 14.3744L249.633 15.3075C250.334 13.9781 250.669 12.4643 250.669 10.7947H248.669ZM247.866 14.3703C247.327 15.38 246.592 16.2052 245.649 16.8561L246.785 18.5019C247.99 17.6698 248.942 16.603 249.631 15.3115L247.866 14.3703ZM245.651 16.8546C244.704 17.505 243.609 17.9751 242.355 18.2565L242.792 20.208C244.274 19.8758 245.608 19.3103 246.783 18.5033L245.651 16.8546ZM241.574 19.2322V19.6158H243.574V19.2322H241.574ZM242.531 20.6149C243.858 20.6716 245.096 21.0438 246.26 21.7396L247.286 20.0232C245.842 19.1593 244.281 18.6878 242.616 18.6167L242.531 20.6149ZM246.264 21.7418C247.424 22.4292 248.373 23.395 249.111 24.6634L250.84 23.6576C249.942 22.1135 248.756 20.8933 247.283 20.021L246.264 21.7418ZM249.113 24.6668C249.825 25.8793 250.203 27.3591 250.203 29.1463H252.203C252.203 27.0727 251.762 25.2286 250.838 23.6542L249.113 24.6668ZM250.203 29.1463C250.203 31.0558 249.731 32.7277 248.805 34.1918L250.495 35.2613C251.639 33.4527 252.203 31.4044 252.203 29.1463H250.203ZM248.803 34.1936C247.897 35.6318 246.541 36.7987 244.678 37.6764L245.531 39.4855C247.683 38.4712 249.356 37.0685 250.496 35.2596L248.803 34.1936ZM244.678 37.6764C242.841 38.5426 240.522 39 237.684 39V41C240.726 41 243.355 40.5113 245.531 39.4855L244.678 37.6764ZM237.684 39H220.905V41H237.684V39ZM229.208 34.2116H235.977V32.2116H229.208V34.2116ZM235.977 34.2116C238.379 34.2116 240.351 33.7609 241.679 32.6575L240.4 31.1195C239.605 31.7803 238.203 32.2116 235.977 32.2116V34.2116ZM241.684 32.6529C242.988 31.5537 243.631 30.0764 243.631 28.3217H241.631C241.631 29.5329 241.214 30.4335 240.395 31.1241L241.684 32.6529ZM243.631 28.3217C243.631 27.067 243.326 25.9191 242.691 24.9118L240.999 25.9788C241.412 26.6334 241.631 27.4032 241.631 28.3217H243.631ZM242.691 24.9118C242.057 23.9078 241.161 23.1363 240.039 22.5902L239.164 24.3885C239.985 24.7884 240.584 25.3208 240.999 25.9788L242.691 24.9118ZM240.044 22.5925C238.918 22.0371 237.615 21.7798 236.169 21.7798V23.7798C237.381 23.7798 238.367 23.9955 239.159 24.3862L240.044 22.5925ZM236.169 21.7798H229.208V23.7798H236.169V21.7798ZM228.208 22.7798V33.2116H230.208V22.7798H228.208ZM229.208 18.1612H235.363V16.1612H229.208V18.1612ZM235.363 18.1612C236.618 18.1612 237.771 17.9425 238.803 17.4789L237.983 15.6546C237.251 15.9837 236.385 16.1612 235.363 16.1612V18.1612ZM238.809 17.4762C239.852 16.9993 240.703 16.3123 241.326 15.4086L239.679 14.2732C239.28 14.8525 238.724 15.3161 237.977 15.6573L238.809 17.4762ZM241.319 15.4181C241.979 14.4848 242.289 13.3876 242.289 12.1754H240.289C240.289 13.0343 240.075 13.714 239.686 14.2637L241.319 15.4181ZM242.289 12.1754C242.289 10.4867 241.673 9.05786 240.426 7.985L239.122 9.5008C239.895 10.1666 240.289 11.0261 240.289 12.1754H242.289ZM240.431 7.98912C239.191 6.90843 237.505 6.43892 235.517 6.43892V8.43892C237.21 8.43892 238.362 8.83872 239.117 9.49667L240.431 7.98912ZM235.517 6.43892H229.208V8.43892H235.517V6.43892ZM228.208 7.43892V17.1612H230.208V7.43892H228.208ZM277.489 17.0078L277.76 17.9702L278.77 17.6851L278.437 16.6899L277.489 17.0078ZM274.363 17.8899L273.418 18.2184L273.728 19.1082L274.634 18.8523L274.363 17.8899ZM273.059 15.4929L273.845 14.8751L273.845 14.8751L273.059 15.4929ZM270.854 13.7862L270.427 14.6908L270.432 14.6931L270.854 13.7862ZM262.608 14.5724L262.013 13.7686L262.013 13.7686L262.608 14.5724ZM261.994 21.3224L261.32 22.0614L261.326 22.0666L261.332 22.0716L261.994 21.3224ZM266.06 23.1825L265.815 24.1523L265.821 24.1536L266.06 23.1825ZM270.508 24.2756L270.27 25.2467L270.272 25.2472L270.508 24.2756ZM276.05 27.1328L275.322 27.8182L275.326 27.8219L276.05 27.1328ZM276.53 36.4716L275.715 35.8911L275.715 35.8911L276.53 36.4716ZM272.675 39.5206L273.082 40.4341L273.085 40.4327L272.675 39.5206ZM259.866 38.6768L259.293 39.4966L259.297 39.4992L259.866 38.6768ZM256.28 33.0391L256.041 32.0679L255.099 32.2993L255.302 33.2479L256.28 33.0391ZM259.559 32.2337L260.531 31.9995L260.296 31.0229L259.32 31.2625L259.559 32.2337ZM262.033 36.2031L261.443 37.0111L261.447 37.014L262.033 36.2031ZM272.349 36.0305L272.947 36.8324L272.952 36.8287L272.349 36.0305ZM273.193 29.2038L272.475 29.8997L272.48 29.9053L273.193 29.2038ZM269.588 27.4013L269.355 28.3739L269.356 28.3741L269.588 27.4013ZM264.775 26.2507L264.541 27.2231L264.542 27.2233L264.775 26.2507ZM259.099 23.3359L258.364 24.0142L258.364 24.0142L259.099 23.3359ZM258.581 14.1122L259.393 14.6959L259.396 14.6919L258.581 14.1122ZM262.224 11.1974L262.638 12.1078L262.638 12.1078L262.224 11.1974ZM273.979 11.9837L273.373 12.7791L273.38 12.7844L273.979 11.9837ZM277.217 16.0454L274.091 16.9275L274.634 18.8523L277.76 17.9702L277.217 16.0454ZM275.307 17.5614C274.965 16.5775 274.478 15.6802 273.845 14.8751L272.273 16.1107C272.765 16.7374 273.147 17.4381 273.418 18.2184L275.307 17.5614ZM273.845 14.8751C273.176 14.0236 272.311 13.3609 271.275 12.8794L270.432 14.6931C271.212 15.0553 271.817 15.5304 272.273 16.1107L273.845 14.8751ZM271.28 12.8817C270.214 12.3792 268.946 12.1534 267.517 12.1534V14.1534C268.747 14.1534 269.703 14.3495 270.427 14.6907L271.28 12.8817ZM267.517 12.1534C265.364 12.1534 263.503 12.6659 262.013 13.7686L263.203 15.3763C264.269 14.5869 265.682 14.1534 267.517 14.1534V12.1534ZM262.013 13.7686C260.499 14.8893 259.69 16.3996 259.69 18.2351H261.69C261.69 17.0791 262.16 16.1477 263.203 15.3763L262.013 13.7686ZM259.69 18.2351C259.69 19.758 260.226 21.0638 261.32 22.0614L262.668 20.5835C262.024 19.9959 261.69 19.2434 261.69 18.2351H259.69ZM261.332 22.0716C262.385 23.0025 263.916 23.674 265.815 24.1523L266.304 22.2128C264.547 21.7706 263.368 21.2021 262.657 20.5732L261.332 22.0716ZM265.821 24.1536L270.27 25.2467L270.747 23.3044L266.298 22.2114L265.821 24.1536ZM270.272 25.2472C272.626 25.8205 274.272 26.7026 275.322 27.8182L276.779 26.4474C275.374 24.9551 273.325 23.9323 270.745 23.304L270.272 25.2472ZM275.326 27.8219C276.372 28.9218 276.91 30.3033 276.91 32.0419H278.91C278.91 29.843 278.209 27.9518 276.775 26.4437L275.326 27.8219ZM276.91 32.0419C276.91 33.5064 276.509 34.7778 275.715 35.8911L277.344 37.0521C278.391 35.583 278.91 33.9013 278.91 32.0419H276.91ZM275.715 35.8911C274.912 37.0186 273.776 37.9294 272.265 38.6085L273.085 40.4327C274.873 39.6288 276.307 38.507 277.344 37.0521L275.715 35.8911ZM272.269 38.6071C270.784 39.2683 269.029 39.6136 266.98 39.6136V41.6136C269.252 41.6136 271.294 41.2303 273.082 40.4341L272.269 38.6071ZM266.98 39.6136C264.252 39.6136 262.094 39.0025 260.435 37.8545L259.297 39.4992C261.37 40.9336 263.955 41.6136 266.98 41.6136V39.6136ZM260.438 37.8571C258.801 36.7135 257.735 35.0647 257.258 32.8302L255.302 33.2479C255.873 35.9225 257.197 38.0323 259.293 39.4966L260.438 37.8571ZM256.518 34.0102L259.797 33.2048L259.32 31.2625L256.041 32.0679L256.518 34.0102ZM258.587 32.4678C259.053 34.4049 259.99 35.9514 261.443 37.0111L262.622 35.3951C261.621 34.6651 260.908 33.5653 260.531 31.9995L258.587 32.4678ZM261.447 37.014C262.905 38.0659 264.759 38.5455 266.922 38.5455V36.5455C265.046 36.5455 263.64 36.1301 262.618 35.3922L261.447 37.014ZM266.922 38.5455C269.328 38.5455 271.369 38.0083 272.947 36.8324L271.752 35.2287C270.619 36.0726 269.042 36.5455 266.922 36.5455V38.5455ZM272.952 36.8287C274.527 35.6402 275.382 34.0797 275.382 32.1953H273.382C273.382 33.3791 272.882 34.3754 271.747 35.2324L272.952 36.8287ZM275.382 32.1953C275.382 30.7591 274.893 29.5054 273.906 28.5024L272.48 29.9053C273.078 30.5131 273.382 31.2537 273.382 32.1953H275.382ZM273.911 28.508C272.939 27.5043 271.536 26.8372 269.82 26.4285L269.356 28.3741C270.861 28.7324 271.862 29.267 272.475 29.8996L273.911 28.508ZM269.82 26.4287L265.007 25.2781L264.542 27.2233L269.355 28.3739L269.82 26.4287ZM265.008 25.2783C262.561 24.691 260.878 23.7896 259.833 22.6577L258.364 24.0142C259.774 25.5414 261.875 26.5831 264.541 27.2231L265.008 25.2783ZM259.833 22.6577C258.792 21.5298 258.258 20.13 258.258 18.3885H256.258C256.258 20.5845 256.95 22.483 258.364 24.0142L259.833 22.6577ZM258.258 18.3885C258.258 16.9579 258.642 15.7402 259.393 14.6959L257.769 13.5286C256.755 14.9388 256.258 16.5719 256.258 18.3885H258.258ZM259.396 14.6919C260.164 13.6117 261.233 12.7467 262.638 12.1078L261.811 10.2871C260.122 11.0545 258.762 12.1326 257.766 13.5326L259.396 14.6919ZM262.638 12.1078C264.035 11.4728 265.655 11.1428 267.517 11.1428V9.14276C265.416 9.14276 263.507 9.51586 261.811 10.2871L262.638 12.1078ZM267.517 11.1428C270.068 11.1428 271.987 11.7226 273.373 12.7791L274.585 11.1882C272.75 9.79023 270.361 9.14276 267.517 9.14276V11.1428ZM273.38 12.7844C274.823 13.8639 275.882 15.3613 276.54 17.3257L278.437 16.6899C277.664 14.3845 276.382 12.5324 274.578 11.1829L273.38 12.7844Z" fill="white"/>
</g>
<defs>
<filter id="filter0_d_1_3" x="0.5354" y="0.727264" width="281.375" height="47.8864" filterUnits="userSpaceOnUse" color-interpolation-filters="sRGB">
<feFlood flood-opacity="0" result="BackgroundImageFix"/>
<feColorMatrix in="SourceAlpha" type="matrix" values="0 0 0 0 0 0 0 0 0 0 0 0 0 0 0 0 0 0 127 0" result="hardAlpha"/>
<feOffset dy="4"/>
<feGaussianBlur stdDeviation="2"/>
<feComposite in2="hardAlpha" operator="out"/>
<feColorMatrix type="matrix" values="0 0 0 0 0 0 0 0 0 0 0 0 0 0 0 0 0 0 0.25 0"/>
<feBlend mode="normal" in2="BackgroundImageFix" result="effect1_dropShadow_1_3"/>
<feBlend mode="normal" in="SourceGraphic" in2="effect1_dropShadow_1_3" result="shape"/>
</filter>
</defs>
</svg>
