<svg version="1.1" id="Layer_1" xmlns="http://www.w3.org/2000/svg" xmlns:xlink="http://www.w3.org/1999/xlink" x="0px" y="0px"
	 width="100%" viewBox="0 0 451 337" enable-background="new 0 0 451 337" xml:space="preserve">
<path fill="transparent" opacity="1.000000" stroke="none" 
	d="
M314.000000,338.000000 
	C209.366379,338.000000 105.232750,338.000000 1.049565,338.000000 
	C1.049565,225.735367 1.049565,113.470695 1.049565,1.103016 
	C151.216904,1.103016 301.433899,1.103016 451.825439,1.103016 
	C451.825439,113.333107 451.825439,225.666534 451.825439,338.000000 
	C406.137421,338.000000 360.318726,338.000000 314.000000,338.000000 
M305.635284,210.113510 
	C306.758820,191.103745 307.882355,172.093964 309.027618,152.716263 
	C315.510162,159.343781 322.554108,165.861145 328.786987,173.078857 
	C337.991302,183.737503 345.403442,195.551987 348.556854,209.571869 
	C352.110138,225.369644 346.257751,239.209641 331.842133,246.533035 
	C325.586029,249.711227 318.377594,251.018295 311.595245,253.154755 
	C309.882294,253.694351 307.054199,253.681061 306.597870,254.730377 
	C303.940186,260.841888 301.836548,267.194366 299.250336,274.273987 
	C316.707275,273.142792 332.227509,269.455627 345.893860,260.052032 
	C361.342407,249.422150 368.783722,234.572342 368.155884,215.745239 
	C367.776672,204.373154 364.436920,193.794159 359.452606,183.713165 
	C347.921814,160.391617 330.705750,141.783356 310.416443,125.935349 
	C300.243225,117.989014 289.493927,110.780167 278.475464,102.856903 
	C278.197418,104.637383 277.962036,105.156731 278.070770,105.589661 
	C284.781799,132.311447 286.480774,159.428757 285.141510,186.884277 
	C283.916107,212.005676 279.639282,236.477875 270.775421,260.020782 
	C264.981232,275.410400 257.344849,289.800293 244.418106,300.596466 
	C230.765213,311.999146 214.777985,312.330200 201.138077,301.051331 
	C196.197662,296.966095 192.281601,291.643005 187.890762,286.891571 
	C186.900742,285.820282 185.833893,283.827545 184.880692,283.873749 
	C178.063705,284.204285 171.266968,284.952667 163.714020,285.636108 
	C172.637833,300.480774 182.546127,312.846985 196.871368,320.949524 
	C214.131073,330.711853 231.518478,330.528107 248.613693,320.538055 
	C261.730164,312.873047 271.274475,301.603821 279.135529,288.829681 
	C293.860565,264.901672 301.155670,238.442322 305.635284,210.113510 
M151.880463,81.364525 
	C143.698410,103.718147 138.855957,126.758705 137.217606,151.269547 
	C138.722977,150.101135 139.617264,149.420761 140.497086,148.722183 
	C180.760895,116.752495 225.740997,95.369423 277.037415,88.567688 
	C294.478546,86.255066 311.925842,86.443199 328.494965,93.650940 
	C344.296082,100.524597 351.376831,113.166183 348.937378,130.108673 
	C348.397491,133.858490 346.898407,137.463257 345.987823,141.170883 
	C345.712708,142.291260 345.436859,143.906372 346.004456,144.659058 
	C349.885284,149.805435 353.990723,154.782425 358.298492,160.156799 
	C359.140289,158.613068 359.875885,157.550690 360.330841,156.379288 
	C362.134918,151.734375 364.167389,147.146881 365.548523,142.374100 
	C374.245697,112.320053 362.069366,86.877434 333.147583,75.042526 
	C311.737274,66.281334 289.385895,65.788483 266.804993,68.548782 
	C235.917816,72.324432 206.981781,82.258102 179.451889,96.544029 
	C175.730957,98.474915 172.015793,100.416901 167.477325,102.781250 
	C173.217743,81.252884 180.559845,61.586033 195.523865,45.830990 
	C205.672180,35.146210 217.808975,29.410610 232.833282,34.657310 
	C243.358780,38.332966 250.422302,46.326035 256.884125,54.953606 
	C257.830048,56.216587 259.217285,58.172432 260.325195,58.123020 
	C267.027222,57.824116 273.707458,57.035526 282.199158,56.242050 
	C275.411865,47.777061 270.096649,40.092831 263.717255,33.427078 
	C252.829117,22.050259 239.809860,14.302094 223.444519,14.014572 
	C204.856766,13.688003 190.743790,22.812294 178.668961,35.818733 
	C166.604263,48.814274 158.541153,64.250877 151.880463,81.364525 
M123.812866,177.685104 
	C123.011353,176.838348 122.195976,176.004227 121.410416,175.142914 
	C110.326622,162.990265 100.656410,149.970657 96.537743,133.661041 
	C92.110649,116.130112 99.132858,101.173225 115.720985,94.002335 
	C121.596924,91.462219 128.114716,90.420387 134.311234,88.598473 
	C135.790833,88.163445 137.988510,87.697525 138.438004,86.642014 
	C140.956406,80.728210 143.040344,74.629387 145.468475,68.064240 
	C143.092194,68.064240 141.227844,67.691116 139.575226,68.124794 
	C128.851868,70.938866 117.645630,72.717140 107.590210,77.107971 
	C85.345329,86.821472 74.848442,106.002708 76.922150,130.175720 
	C77.920135,141.809174 82.037933,152.486130 87.584602,162.639893 
	C102.740051,190.383560 125.357925,211.055786 151.106659,228.498535 
	C162.613663,236.293594 174.935364,242.885956 187.504196,250.392532 
	C180.589066,251.475327 173.964630,252.802322 167.274582,253.503067 
	C150.599182,255.249710 133.971344,255.447662 118.040047,249.088913 
	C105.222527,243.972992 96.226822,235.203888 95.560394,220.774551 
	C95.269730,214.481201 97.457031,208.075027 98.501099,201.717133 
	C98.729721,200.324921 99.561089,198.419754 98.958931,197.602814 
	C95.178856,192.474365 91.071785,187.586929 85.893005,181.154236 
	C83.104317,189.124512 80.310402,195.600296 78.570076,202.347839 
	C71.451164,229.949127 82.844482,254.528809 108.800224,265.498413 
	C118.758774,269.707123 129.706009,272.454254 140.457413,273.743500 
	C171.873169,277.510712 202.019211,270.848206 231.468109,260.336456 
	C235.536743,258.884186 239.573196,257.326599 243.557617,255.657928 
	C247.372314,254.060379 251.099838,252.254669 255.688828,250.165726 
	C205.176102,236.945526 160.883102,214.563309 123.812866,177.685104 
M210.329712,152.566010 
	C209.173111,156.782059 208.748611,161.394608 206.720779,165.138809 
	C200.953613,175.787170 194.486465,186.054504 188.384506,196.524078 
	C184.146881,203.794876 186.358841,208.816910 194.784454,209.063217 
	C211.405685,209.549103 228.062866,209.538422 244.682877,209.019058 
	C252.851212,208.763794 255.046448,203.867661 251.076523,196.760681 
	C247.678223,190.677063 244.011581,184.744019 240.530075,178.706055 
	C234.813919,168.792511 226.755203,159.757858 228.689804,146.921753 
	C228.800980,146.184052 226.900940,145.143250 225.774155,144.091599 
	C223.297256,154.968628 226.093369,163.380798 231.474609,171.514465 
	C237.051300,179.943512 241.818039,188.909637 246.909424,197.658096 
	C250.142883,203.214127 249.522522,205.063644 243.315506,205.184067 
	C227.514969,205.490616 211.699875,205.462952 195.899368,205.140518 
	C189.883057,205.017746 189.153839,203.128128 192.130936,198.016022 
	C198.057724,187.838791 203.619171,177.413406 210.138962,167.628540 
	C215.019714,160.303543 214.144135,152.696182 214.029861,144.510345 
	C208.232758,145.051270 211.456268,149.399902 210.329712,152.566010 
M202.185562,140.375854 
	C207.261108,139.788406 212.336655,139.200958 217.667969,138.583923 
	C217.667969,152.998230 217.741867,166.315964 217.558868,179.630173 
	C217.539612,181.032166 216.300858,182.768036 215.124786,183.740631 
	C210.848862,187.276764 210.128342,192.589157 213.688843,196.389938 
	C216.955841,199.877411 222.394180,199.837006 225.691299,196.300797 
	C229.112274,192.631760 228.766571,187.109314 224.345764,184.177917 
	C221.951248,182.590134 221.707733,180.872055 221.718262,178.485748 
	C221.776276,165.332306 221.738327,152.178467 221.757111,139.024796 
	C221.759140,137.599426 221.914383,136.174271 222.039368,134.058029 
	C226.931961,134.711807 231.287964,135.406631 235.670975,135.802872 
	C236.813492,135.906189 238.457138,135.409637 239.110535,134.585770 
	C239.760574,133.766159 239.927505,131.937607 239.436844,131.012680 
	C238.932434,130.061859 237.320145,129.041275 236.290924,129.134628 
	C230.273956,129.680344 224.285843,130.543976 218.034424,131.332275 
	C217.794693,132.238937 217.440414,133.578873 216.947372,135.443604 
	C212.645767,134.919098 208.600266,134.256454 204.530045,134.020691 
	C203.090652,133.937317 200.597977,134.600739 200.346848,135.446182 
	C199.950577,136.780334 201.040863,138.556030 202.185562,140.375854 
z"/>
<path fill="#FBFCFC" opacity="1.000000" stroke="none" 
	d="
M305.540009,210.545212 
	C301.155670,238.442322 293.860565,264.901672 279.135529,288.829681 
	C271.274475,301.603821 261.730164,312.873047 248.613693,320.538055 
	C231.518478,330.528107 214.131073,330.711853 196.871368,320.949524 
	C182.546127,312.846985 172.637833,300.480774 163.714020,285.636108 
	C171.266968,284.952667 178.063705,284.204285 184.880692,283.873749 
	C185.833893,283.827545 186.900742,285.820282 187.890762,286.891571 
	C192.281601,291.643005 196.197662,296.966095 201.138077,301.051331 
	C214.777985,312.330200 230.765213,311.999146 244.418106,300.596466 
	C257.344849,289.800293 264.981232,275.410400 270.775421,260.020782 
	C279.639282,236.477875 283.916107,212.005676 285.141510,186.884277 
	C286.480774,159.428757 284.781799,132.311447 278.070770,105.589661 
	C277.962036,105.156731 278.197418,104.637383 278.475464,102.856903 
	C289.493927,110.780167 300.243225,117.989014 310.416443,125.935349 
	C330.705750,141.783356 347.921814,160.391617 359.452606,183.713165 
	C364.436920,193.794159 367.776672,204.373154 368.155884,215.745239 
	C368.783722,234.572342 361.342407,249.422150 345.893860,260.052032 
	C332.227509,269.455627 316.707275,273.142792 299.250336,274.273987 
	C301.836548,267.194366 303.940186,260.841888 306.597870,254.730377 
	C307.054199,253.681061 309.882294,253.694351 311.595245,253.154755 
	C318.377594,251.018295 325.586029,249.711227 331.842133,246.533035 
	C346.257751,239.209641 352.110138,225.369644 348.556854,209.571869 
	C345.403442,195.551987 337.991302,183.737503 328.786987,173.078857 
	C322.554108,165.861145 315.510162,159.343781 309.027618,152.716263 
	C307.882355,172.093964 306.758820,191.103745 305.540009,210.545212 
z"/>
<path fill="#FBFBFC" opacity="1.000000" stroke="none" 
	d="
M151.995193,80.993027 
	C158.541153,64.250877 166.604263,48.814274 178.668961,35.818733 
	C190.743790,22.812294 204.856766,13.688003 223.444519,14.014572 
	C239.809860,14.302094 252.829117,22.050259 263.717255,33.427078 
	C270.096649,40.092831 275.411865,47.777061 282.199158,56.242050 
	C273.707458,57.035526 267.027222,57.824116 260.325195,58.123020 
	C259.217285,58.172432 257.830048,56.216587 256.884125,54.953606 
	C250.422302,46.326035 243.358780,38.332966 232.833282,34.657310 
	C217.808975,29.410610 205.672180,35.146210 195.523865,45.830990 
	C180.559845,61.586033 173.217743,81.252884 167.477325,102.781250 
	C172.015793,100.416901 175.730957,98.474915 179.451889,96.544029 
	C206.981781,82.258102 235.917816,72.324432 266.804993,68.548782 
	C289.385895,65.788483 311.737274,66.281334 333.147583,75.042526 
	C362.069366,86.877434 374.245697,112.320053 365.548523,142.374100 
	C364.167389,147.146881 362.134918,151.734375 360.330841,156.379288 
	C359.875885,157.550690 359.140289,158.613068 358.298492,160.156799 
	C353.990723,154.782425 349.885284,149.805435 346.004456,144.659058 
	C345.436859,143.906372 345.712708,142.291260 345.987823,141.170883 
	C346.898407,137.463257 348.397491,133.858490 348.937378,130.108673 
	C351.376831,113.166183 344.296082,100.524597 328.494965,93.650940 
	C311.925842,86.443199 294.478546,86.255066 277.037415,88.567688 
	C225.740997,95.369423 180.760895,116.752495 140.497086,148.722183 
	C139.617264,149.420761 138.722977,150.101135 137.217606,151.269547 
	C138.855957,126.758705 143.698410,103.718147 151.995193,80.993027 
z"/>
<path fill="#FBFCFC" opacity="1.000000" stroke="none" 
	d="
M124.052025,177.945892 
	C160.883102,214.563309 205.176102,236.945526 255.688828,250.165726 
	C251.099838,252.254669 247.372314,254.060379 243.557617,255.657928 
	C239.573196,257.326599 235.536743,258.884186 231.468109,260.336456 
	C202.019211,270.848206 171.873169,277.510712 140.457413,273.743500 
	C129.706009,272.454254 118.758774,269.707123 108.800224,265.498413 
	C82.844482,254.528809 71.451164,229.949127 78.570076,202.347839 
	C80.310402,195.600296 83.104317,189.124512 85.893005,181.154236 
	C91.071785,187.586929 95.178856,192.474365 98.958931,197.602814 
	C99.561089,198.419754 98.729721,200.324921 98.501099,201.717133 
	C97.457031,208.075027 95.269730,214.481201 95.560394,220.774551 
	C96.226822,235.203888 105.222527,243.972992 118.040047,249.088913 
	C133.971344,255.447662 150.599182,255.249710 167.274582,253.503067 
	C173.964630,252.802322 180.589066,251.475327 187.504196,250.392532 
	C174.935364,242.885956 162.613663,236.293594 151.106659,228.498535 
	C125.357925,211.055786 102.740051,190.383560 87.584602,162.639893 
	C82.037933,152.486130 77.920135,141.809174 76.922150,130.175720 
	C74.848442,106.002708 85.345329,86.821472 107.590210,77.107971 
	C117.645630,72.717140 128.851868,70.938866 139.575226,68.124794 
	C141.227844,67.691116 143.092194,68.064240 145.468475,68.064240 
	C143.040344,74.629387 140.956406,80.728210 138.438004,86.642014 
	C137.988510,87.697525 135.790833,88.163445 134.311234,88.598473 
	C128.114716,90.420387 121.596924,91.462219 115.720985,94.002335 
	C99.132858,101.173225 92.110649,116.130112 96.537743,133.661041 
	C100.656410,149.970657 110.326622,162.990265 121.410416,175.142914 
	C122.195976,176.004227 123.011353,176.838348 124.052025,177.945892 
z"/>
<path fill="#F2F3F5" opacity="1.000000" stroke="none" 
	d="
M210.341873,152.114075 
	C211.456268,149.399902 208.232758,145.051270 214.029861,144.510345 
	C214.144135,152.696182 215.019714,160.303543 210.138962,167.628540 
	C203.619171,177.413406 198.057724,187.838791 192.130936,198.016022 
	C189.153839,203.128128 189.883057,205.017746 195.899368,205.140518 
	C211.699875,205.462952 227.514969,205.490616 243.315506,205.184067 
	C249.522522,205.063644 250.142883,203.214127 246.909424,197.658096 
	C241.818039,188.909637 237.051300,179.943512 231.474609,171.514465 
	C226.093369,163.380798 223.297256,154.968628 225.774155,144.091599 
	C226.900940,145.143250 228.800980,146.184052 228.689804,146.921753 
	C226.755203,159.757858 234.813919,168.792511 240.530075,178.706055 
	C244.011581,184.744019 247.678223,190.677063 251.076523,196.760681 
	C255.046448,203.867661 252.851212,208.763794 244.682877,209.019058 
	C228.062866,209.538422 211.405685,209.549103 194.784454,209.063217 
	C186.358841,208.816910 184.146881,203.794876 188.384506,196.524078 
	C194.486465,186.054504 200.953613,175.787170 206.720779,165.138809 
	C208.748611,161.394608 209.173111,156.782059 210.341873,152.114075 
z"/>
<path fill="#EBEDF0" opacity="1.000000" stroke="none" 
	d="
M201.843750,140.260345 
	C201.040863,138.556030 199.950577,136.780334 200.346848,135.446182 
	C200.597977,134.600739 203.090652,133.937317 204.530045,134.020691 
	C208.600266,134.256454 212.645767,134.919098 216.947372,135.443604 
	C217.440414,133.578873 217.794693,132.238937 218.034424,131.332275 
	C224.285843,130.543976 230.273956,129.680344 236.290924,129.134628 
	C237.320145,129.041275 238.932434,130.061859 239.436844,131.012680 
	C239.927505,131.937607 239.760574,133.766159 239.110535,134.585770 
	C238.457138,135.409637 236.813492,135.906189 235.670975,135.802872 
	C231.287964,135.406631 226.931961,134.711807 222.039368,134.058029 
	C221.914383,136.174271 221.759140,137.599426 221.757111,139.024796 
	C221.738327,152.178467 221.776276,165.332306 221.718262,178.485748 
	C221.707733,180.872055 221.951248,182.590134 224.345764,184.177917 
	C228.766571,187.109314 229.112274,192.631760 225.691299,196.300797 
	C222.394180,199.837006 216.955841,199.877411 213.688843,196.389938 
	C210.128342,192.589157 210.848862,187.276764 215.124786,183.740631 
	C216.300858,182.768036 217.539612,181.032166 217.558868,179.630173 
	C217.741867,166.315964 217.667969,152.998230 217.667969,138.583923 
	C212.336655,139.200958 207.261108,139.788406 201.843750,140.260345 
M216.155258,188.265976 
	C216.471649,190.176849 216.358994,192.346558 217.288574,193.887497 
	C217.741470,194.638245 220.922440,194.868546 221.492096,194.185883 
	C222.626999,192.825821 223.744095,190.301590 223.196396,188.922226 
	C221.997116,185.901871 219.307938,186.019897 216.155258,188.265976 
z"/>
<path fill="#0A0E14" opacity="1.000000" stroke="none" 
	d="
M216.453430,188.012482 
	C219.307938,186.019897 221.997116,185.901871 223.196396,188.922226 
	C223.744095,190.301590 222.626999,192.825821 221.492096,194.185883 
	C220.922440,194.868546 217.741470,194.638245 217.288574,193.887497 
	C216.358994,192.346558 216.471649,190.176849 216.453430,188.012482 
z"/>
</svg>