<svg width="451" height="337" viewBox="0 0 451 337" fill="none" xmlns="http://www.w3.org/2000/svg">
<path d="M241.095 116.303C238.785 117.125 237.317 119.083 237.16 121.549C237.043 123.389 237.454 124.642 238.609 125.915C240.841 128.401 244.541 128.656 247.007 126.483C250.237 123.644 249.533 118.417 245.656 116.557C244.364 115.931 242.446 115.813 241.095 116.303ZM244.736 119.415C245.754 120.179 246.165 121.04 246.087 122.176C245.833 125.171 242.191 126.091 240.488 123.566C240.097 123.017 240.038 122.704 240.097 121.823C240.195 120.531 240.625 119.846 241.722 119.278C242.661 118.789 243.953 118.848 244.736 119.415Z" fill="#FBFCFC"/>
<path d="M227.392 125.562C225.708 126.404 224.905 127.853 225.023 129.889L225.101 131.22H224.553C223.378 131.22 222.811 132.63 223.594 133.589L223.966 134.059L230.211 134.156C233.636 134.215 236.455 134.294 236.475 134.313C236.495 134.333 236.651 134.607 236.827 134.94C237.415 136.095 236.808 136.975 235.203 137.289C233.95 137.524 233.499 137.798 232.951 138.659C232.54 139.325 232.521 139.52 232.462 146.49C232.403 154.007 232.501 155.26 233.245 156.767C234.243 158.725 235.281 159.567 238.257 160.859C241.741 162.366 244.717 164.343 247.634 167.084C249.415 168.768 249.924 168.944 250.727 168.122C251.51 167.358 251.373 166.771 250.1 165.44C247.262 162.464 243.992 160.252 239.079 157.981C236.847 156.963 235.888 156.004 235.575 154.477C235.438 153.909 235.359 150.816 235.359 146.901V140.264L236.084 140.127C238.824 139.618 240.527 137.034 239.783 134.489C239.137 132.297 237.591 131.22 235.105 131.22H233.597L233.715 130.672C233.774 130.378 233.852 130.026 233.911 129.889C234.067 129.341 233.539 127.638 232.951 126.874C231.679 125.21 229.251 124.642 227.392 125.562ZM230.465 128.479C230.857 128.871 230.935 129.184 230.857 129.948C230.759 131.063 228.997 131.533 228.292 130.652C227.431 129.595 228.077 128.088 229.388 128.088C229.819 128.088 230.23 128.244 230.465 128.479Z" fill="#FBFCFC"/>
<path d="M215.235 131.631C214.138 132.179 213.297 133.217 212.925 134.489C212.181 137.034 213.884 139.618 216.644 140.127L217.368 140.264L217.31 147.449C217.251 154.516 217.251 154.633 216.781 155.554C216.213 156.728 215.548 157.218 213.316 158.196C206.132 161.309 200.063 167.025 196.578 173.936C193.818 179.437 192.643 185.231 193.094 191.183C193.72 199.679 197.303 207.294 203.352 213.01C205.172 214.733 206.778 215.653 208.52 215.986C209.949 216.26 242.759 216.26 244.188 215.986C245.97 215.653 247.614 214.714 249.415 212.971C258.636 204.123 262.003 190.83 258.127 178.693C257.383 176.324 255.543 172.35 254.936 171.743C254.348 171.156 253.311 171.215 252.802 171.861C252.567 172.154 252.391 172.507 252.391 172.663C252.391 172.8 252.782 173.72 253.272 174.68C253.761 175.639 254.153 176.52 254.153 176.637C254.153 176.774 251.725 176.833 246.988 176.833H239.823L238.942 175.854C234.596 171.019 218.112 171.019 213.766 175.854L212.885 176.833H205.701H198.536L198.653 176.383C198.732 176.148 199.104 175.384 199.495 174.68C202.804 168.611 208.148 163.678 214.354 160.976C217.545 159.586 218.504 158.764 219.581 156.474L220.187 155.201V147.273C220.187 139.442 220.187 139.344 219.757 138.659C219.209 137.798 218.758 137.524 217.505 137.289C215.9 136.975 215.293 136.095 215.861 134.959C216.194 134.333 216.527 134.156 217.349 134.156C218.152 134.156 218.837 133.804 219.091 133.236C219.404 132.571 219.365 132.316 218.895 131.729C218.543 131.279 218.367 131.22 217.29 131.22C216.448 131.22 215.822 131.357 215.235 131.631ZM231.385 175.58C233.578 175.952 235.633 176.755 236.475 177.557L237.18 178.203L236.651 178.771C233.421 182.138 219.15 182.099 215.998 178.712L215.528 178.203L216.233 177.557C218.406 175.502 225.571 174.562 231.385 175.58ZM212.69 190.909L212.748 202.048L213.336 202.909C215.117 205.434 220.031 206.981 226.354 206.981C232.677 206.981 237.591 205.434 239.372 202.909L239.96 202.048L240.018 190.909L240.077 179.77H247.771H255.484L255.699 180.651C257.246 186.798 257.109 192.71 255.288 198.269C254.603 200.423 253.154 203.477 251.96 205.317C249.826 208.625 246.831 211.757 244.971 212.638L243.875 213.147H226.354H208.833L207.659 212.599C206.21 211.914 203.371 209.075 201.512 206.491C200.043 204.397 198.203 200.716 197.4 198.269C195.619 192.729 195.443 186.484 196.931 181.14C197.107 180.553 197.263 180.004 197.322 179.907C197.361 179.828 200.826 179.77 205.016 179.77H212.631L212.69 190.909ZM217.251 182.784C219.62 183.763 222.165 184.135 226.354 184.135C230.974 184.135 233.323 183.744 236.397 182.432L237.121 182.119V183.998C237.121 185.858 237.121 185.877 236.495 186.504C235.731 187.267 234.165 187.894 231.64 188.442C228.997 189.01 223.711 189.01 221.068 188.442C218.641 187.913 217.094 187.306 216.253 186.582L215.587 185.995V184.037C215.587 182.549 215.646 182.099 215.841 182.177C215.959 182.236 216.605 182.51 217.251 182.784ZM217.74 190.537C220.109 191.418 222.693 191.77 226.354 191.77C230.68 191.77 233.578 191.241 236.788 189.851C237.082 189.734 237.121 189.871 237.121 191.555C237.121 193.747 236.964 194.021 235.34 194.843C233.734 195.666 231.405 196.194 228.312 196.429C225.316 196.664 224.984 196.821 224.984 197.976C224.984 199.209 225.454 199.463 227.705 199.385C230.798 199.307 234.224 198.583 236.788 197.486C237.082 197.369 237.121 197.506 237.121 199.229C237.121 200.971 237.082 201.167 236.651 201.597C235.144 203.105 231.209 204.044 226.354 204.044C222.341 204.044 219.424 203.516 217.114 202.361C215.744 201.676 215.587 201.323 215.587 199.189C215.587 197.506 215.626 197.349 215.939 197.486C219.052 198.739 219.835 198.837 220.462 198.054C220.696 197.76 220.873 197.388 220.873 197.193C220.873 196.566 220.109 195.861 219.052 195.509C217.545 195.02 216.253 194.315 215.9 193.825C215.665 193.493 215.587 192.905 215.587 191.555C215.587 189.871 215.626 189.734 215.939 189.851C216.116 189.949 216.938 190.243 217.74 190.537Z" fill="#FBFCFC"/>
<path d="M204.135 186.328C203.215 187.228 203.802 188.775 205.094 188.775C205.662 188.775 206.582 188.011 206.582 187.522C206.582 186.974 206.151 186.269 205.662 186.054C204.957 185.74 204.663 185.78 204.135 186.328Z" fill="#FBFCFC"/>
<path d="M246.244 186.132C244.462 186.758 243.366 188.168 243.229 189.949C243.033 192.69 244.952 194.824 247.653 194.843C250.179 194.843 252.058 192.984 252.077 190.439C252.097 188.422 250.844 186.68 248.984 186.132C247.79 185.78 247.242 185.78 246.244 186.132ZM248.691 189.342C249.337 189.988 249.376 190.321 248.965 191.104C248.495 192.024 247.34 192.201 246.577 191.476C245.833 190.772 246.048 189.342 246.968 188.97C247.712 188.677 248.103 188.755 248.691 189.342Z" fill="#FBFCFC"/>
<path d="M203.743 192.142C202.549 192.475 201.022 194.1 200.709 195.392C199.808 199.209 203.685 202.204 207.189 200.364C210.301 198.739 210.282 194.08 207.169 192.494C206.249 192.024 204.742 191.868 203.743 192.142ZM205.779 195.137C207.15 195.842 206.66 197.976 205.114 197.976C203.371 197.976 202.882 195.685 204.487 195.039C205.094 194.804 205.153 194.804 205.779 195.137Z" fill="#FBFCFC"/>
<path d="M244.032 198.171C242.622 198.739 243.092 200.912 244.619 200.912C245.363 200.912 245.833 200.501 246.028 199.698C246.146 199.268 246.048 199.052 245.578 198.563C244.952 197.956 244.736 197.897 244.032 198.171Z" fill="#FBFCFC"/>
<path d="M223.633 137.798C223.124 138.444 223.104 139.07 223.594 139.657C223.946 140.108 224.083 140.127 226.354 140.127C228.625 140.127 228.762 140.108 229.114 139.657C229.604 139.07 229.584 138.444 229.075 137.798C228.684 137.308 228.625 137.289 226.354 137.289C224.083 137.289 224.024 137.308 223.633 137.798Z" fill="#FBFCFC"/>
<path d="M225.375 149.818C224.788 150.405 224.847 151.442 225.493 151.951C225.786 152.186 226.158 152.363 226.354 152.363C226.55 152.363 226.922 152.186 227.215 151.951C228.233 151.149 227.666 149.426 226.354 149.426C226.021 149.426 225.591 149.602 225.375 149.818Z" fill="#FBFCFC"/>
<path d="M223.574 158.705C220.794 159.449 219.483 162.523 220.833 165.107C221.617 166.595 222.674 167.299 224.279 167.397C225.767 167.495 226.746 167.221 227.646 166.399C228.684 165.498 229.173 164.422 229.173 163.032C229.173 160.056 226.452 157.942 223.574 158.705ZM225.982 162.131C226.746 163.09 226.06 164.5 224.827 164.5C223.144 164.5 222.556 162.307 224.044 161.661C224.827 161.348 225.493 161.505 225.982 162.131Z" fill="#FBFCFC"/>
<path d="M234.4 165.205C234.165 165.498 233.989 165.87 233.989 166.066C233.989 166.262 234.165 166.634 234.4 166.927C235.203 167.945 236.925 167.378 236.925 166.066C236.925 164.754 235.203 164.187 234.4 165.205Z" fill="#FBFCFC"/>
</svg>
