<svg width="451" height="337" viewBox="0 0 451 337" fill="none" xmlns="http://www.w3.org/2000/svg">
<path d="M210.342 152.114C211.456 149.4 208.233 145.051 214.03 144.51C214.144 152.696 215.02 160.304 210.139 167.629C203.619 177.413 198.058 187.839 192.131 198.016C189.154 203.128 189.883 205.018 195.899 205.141C211.7 205.463 227.515 205.491 243.315 205.184C249.523 205.064 250.143 203.214 246.909 197.658C241.818 188.91 237.051 179.944 231.475 171.514C226.093 163.381 223.297 154.969 225.774 144.092C226.901 145.143 228.801 146.184 228.69 146.922C226.755 159.758 234.814 168.793 240.53 178.706C244.012 184.744 247.678 190.677 251.077 196.761C255.046 203.868 252.851 208.764 244.683 209.019C228.063 209.538 211.406 209.549 194.784 209.063C186.359 208.817 184.147 203.795 188.384 196.524C194.486 186.055 200.954 175.787 206.721 165.139C208.749 161.395 209.173 156.782 210.342 152.114Z" fill="#F2F3F5"/>
<path d="M201.844 140.26C201.041 138.556 199.951 136.78 200.347 135.446C200.598 134.601 203.091 133.937 204.53 134.021C208.6 134.256 212.646 134.919 216.947 135.444C217.44 133.579 217.795 132.239 218.034 131.332C224.286 130.544 230.274 129.68 236.291 129.135C237.32 129.041 238.932 130.062 239.437 131.013C239.928 131.938 239.761 133.766 239.111 134.586C238.457 135.41 236.813 135.906 235.671 135.803C231.288 135.407 226.932 134.712 222.039 134.058C221.914 136.174 221.759 137.599 221.757 139.025C221.738 152.178 221.776 165.332 221.718 178.486C221.708 180.872 221.951 182.59 224.346 184.178C228.767 187.109 229.112 192.632 225.691 196.301C222.394 199.837 216.956 199.877 213.689 196.39C210.128 192.589 210.849 187.277 215.125 183.741C216.301 182.768 217.54 181.032 217.559 179.63C217.742 166.316 217.668 152.998 217.668 138.584C212.337 139.201 207.261 139.788 201.844 140.26ZM216.155 188.266C216.472 190.177 216.359 192.347 217.289 193.887C217.741 194.638 220.922 194.869 221.492 194.186C222.627 192.826 223.744 190.302 223.196 188.922C221.997 185.902 219.308 186.02 216.155 188.266Z" fill="#EBEDF0"/>
</svg>
