<svg width="204" height="204" viewBox="0 0 204 204" fill="none" xmlns="http://www.w3.org/2000/svg">
<g clip-path="url(#clip0_12_99)">
<path d="M187.639 69.9024C193.092 67.8589 199.226 70.6146 200.696 76.2487C206.238 97.4866 204.802 120.051 196.436 140.546C186.737 164.31 168.435 183.543 145.182 194.409C121.928 205.275 95.4335 206.975 70.9823 199.169C46.5311 191.364 25.9213 174.628 13.2644 152.299C0.607559 129.97 -3.16595 103.69 2.69673 78.7019C8.55941 53.7137 23.6272 31.8543 44.8943 17.4845C66.1614 3.11471 92.0643 -2.70908 117.435 1.17496C139.317 4.52476 159.415 14.883 174.791 30.5469C178.869 34.7023 178.083 41.3808 173.529 45.0093C168.975 48.6377 162.385 47.8275 158.195 43.7835C146.212 32.2158 130.877 24.5645 114.244 22.0182C94.1183 18.9371 73.5703 23.5569 56.6996 34.9561C39.829 46.3553 27.876 63.6958 23.2253 83.5183C18.5746 103.34 21.5681 124.188 31.6084 141.901C41.6488 159.614 57.9981 172.89 77.3945 179.082C96.791 185.274 117.809 183.925 136.255 175.305C154.701 166.686 169.219 151.429 176.914 132.578C183.273 116.999 184.584 99.912 180.815 83.6883C179.497 78.0167 182.187 71.946 187.639 69.9024Z" fill="url(#paint0_linear_12_99)"/>
<path d="M63.9512 60.1864C62.4902 60.6513 61.0293 61.9628 60.3652 63.4071L60 64.1874V102.454V140.721L60.3652 141.501C60.8633 142.597 62.1084 143.875 63.2207 144.406L64.1504 144.871H102.417H140.684L141.613 144.406C142.726 143.875 143.971 142.597 144.469 141.501L144.834 140.721V102.454V64.1874L144.386 63.2743C143.805 62.0956 142.775 61.0663 141.613 60.4853L140.684 60.037L102.666 60.0038C71.7041 59.9872 64.5156 60.0204 63.9512 60.1864ZM140.219 62.9589C140.468 63.0419 140.899 63.3241 141.165 63.5732C142.012 64.37 142.095 64.8017 142.095 68.1718V71.2431H102.417H62.7393V68.1884C62.7393 64.9345 62.8223 64.4862 63.5361 63.706C64.4658 62.7265 61.7764 62.7929 102.367 62.7763C128.382 62.7763 139.887 62.8261 140.219 62.9589ZM142.095 106.92C142.095 129.747 142.045 139.924 141.912 140.256C141.68 140.887 140.966 141.634 140.318 141.899C139.521 142.248 65.3125 142.248 64.5156 141.899C63.8682 141.634 63.1543 140.887 62.9219 140.256C62.7891 139.924 62.7393 129.747 62.7393 106.92V74.0653H102.417H142.095V106.92Z" fill="white"/>
<path d="M66.043 66.08C65.5283 66.5946 65.4453 67.0595 65.7607 67.6405C66.0928 68.288 66.4248 68.4042 67.7529 68.4208C68.9815 68.4208 69.0313 68.4042 69.4629 67.8896C69.9941 67.2587 69.9443 66.5448 69.2803 65.9638C68.9316 65.6649 68.666 65.5985 67.7031 65.5985C66.624 65.5985 66.4912 65.6317 66.043 66.08Z" fill="white"/>
<path d="M73.4473 65.7978C72.6006 66.2792 72.4346 67.3417 73.1152 68.0058C73.4639 68.371 73.6631 68.4208 74.7754 68.4208C75.8877 68.4208 76.0869 68.371 76.4355 68.0058C77.1162 67.3417 76.9834 66.2626 76.1699 65.8476C75.6221 65.5487 73.9121 65.5321 73.4473 65.7978Z" fill="white"/>
<path d="M80.5361 65.7646C80.0879 65.9472 79.6895 66.7939 79.8057 67.3583C79.9385 68.1054 80.5693 68.4208 81.9473 68.4208C83.0264 68.4208 83.2256 68.371 83.5742 68.0058C84.1553 67.4413 84.1221 66.7108 83.5078 66.08C83.0596 65.6483 82.9102 65.5985 81.9639 65.6151C81.3828 65.6151 80.752 65.6815 80.5361 65.7646Z" fill="white"/>
<path d="M128.73 65.7978C127.867 66.2626 127.701 67.3251 128.398 68.0058L128.797 68.4208H133.578C138.592 68.4042 138.675 68.4042 139.073 67.6405C139.389 67.0595 139.306 66.5946 138.791 66.08L138.31 65.5985H133.678C130.656 65.6151 128.946 65.6649 128.73 65.7978Z" fill="white"/>
<path d="M78.5439 77.0702C76.3857 77.4355 74.4268 78.9296 73.4141 81.0048C72.7998 82.2167 72.7832 82.3329 72.7832 84.0097C72.7832 85.6366 72.8164 85.8524 73.3145 86.8983C74.3604 89.0897 76.3193 90.6171 78.6602 91.0155C82.5283 91.6962 86.4297 88.6581 86.7617 84.7235C86.8447 83.6278 86.8281 83.5282 86.4297 83.1298C85.915 82.6151 85.0352 82.5487 84.4873 82.997C84.2051 83.2294 84.0723 83.578 83.9727 84.3251C83.79 85.6034 83.3584 86.4667 82.5615 87.1806C81.6982 87.9442 80.918 88.2265 79.7559 88.2265C78.5771 88.2265 77.7803 87.9276 76.8838 87.1142C75.9375 86.2509 75.4561 85.0556 75.5557 83.7772C75.7383 81.5692 77.2158 80.1083 79.5732 79.7929C81.0176 79.5937 81.6484 78.4315 80.8018 77.4853C80.3369 76.9872 79.7061 76.871 78.5439 77.0702Z" fill="white"/>
<path d="M101.305 77.0536C97.6025 77.6015 94.8467 81.3534 95.4277 85.039C95.9258 88.1103 98.2666 90.4843 101.321 91.0155C103.861 91.4472 106.8 90.2021 108.211 88.0771C108.825 87.1308 108.875 86.3837 108.36 85.9022C107.48 85.1054 106.733 85.2714 105.854 86.4833C104.642 88.1767 102.434 88.7079 100.524 87.7782C99.0469 87.0478 98.2334 85.7196 98.2334 84.0097C98.2334 81.7851 99.7773 80.1249 102.168 79.7929C103.214 79.6435 103.745 79.1952 103.745 78.4315C103.745 77.6513 103.513 77.286 102.898 77.0702C102.6 76.9706 102.317 76.9042 102.268 76.9042C102.218 76.9208 101.786 76.9872 101.305 77.0536Z" fill="white"/>
<path d="M123.966 77.0702C121.758 77.3857 119.766 78.8964 118.736 81.0048C118.122 82.2167 118.105 82.3329 118.105 84.0097C118.105 85.6366 118.139 85.8524 118.637 86.8983C121.276 92.4765 128.88 92.4765 131.52 86.8983C132.001 85.8524 132.051 85.6366 132.051 84.0927C132.051 82.2665 131.868 81.7021 131.188 81.3866C130.557 81.0878 130.158 81.1708 129.627 81.6855C129.162 82.1503 129.162 82.2001 129.262 83.4784C129.345 84.5907 129.295 84.8896 128.979 85.6366C128.548 86.6659 127.469 87.7118 126.556 88.0273C125.709 88.3095 124.231 88.2929 123.484 87.9774C122.654 87.6122 121.725 86.7489 121.293 85.9521C120.778 84.9892 120.795 83.0634 121.293 82.1005C121.99 80.789 123.169 80.0253 124.896 79.7929C126.34 79.5937 126.954 78.4315 126.124 77.4853C125.659 76.9706 125.194 76.8876 123.966 77.0702Z" fill="white"/>
<path d="M74.5928 94.3856C73.9951 94.8837 73.9453 95.8134 74.4932 96.3612C74.8584 96.7265 74.958 96.7265 79.4736 96.7763C82.3955 96.8095 84.2549 96.7597 84.5537 96.66C85.1348 96.4276 85.5498 95.4979 85.334 94.9169C84.9853 94.0204 84.8193 93.9872 79.7227 93.9872H75.041L74.5928 94.3856Z" fill="white"/>
<path d="M97.1875 94.4023C96.6064 94.9667 96.6396 95.6972 97.2539 96.328L97.7354 96.8095H102.417H107.099L107.58 96.328C108.194 95.6972 108.228 94.9667 107.646 94.4023L107.248 93.9872H102.417H97.5859L97.1875 94.4023Z" fill="white"/>
<path d="M120.048 94.2528C119.832 94.4022 119.6 94.7011 119.5 94.9169C119.284 95.4979 119.699 96.4276 120.28 96.66C120.579 96.7597 122.438 96.8095 125.36 96.7763C129.876 96.7265 129.976 96.7265 130.341 96.3612C130.889 95.8134 130.839 94.8837 130.241 94.3856L129.793 93.9872H125.111C121.077 93.9872 120.363 94.0204 120.048 94.2528Z" fill="white"/>
<path d="M75.9541 100.047C75.2402 100.711 75.4062 101.79 76.3027 102.255C76.7842 102.52 82.6611 102.52 83.2256 102.271C84.0557 101.89 84.1885 100.644 83.458 99.9638C83.126 99.6483 82.8769 99.6317 79.7559 99.6317C76.4189 99.6317 76.4023 99.6317 75.9541 100.047Z" fill="white"/>
<path d="M98.665 100.03C98.0342 100.561 98.0342 101.524 98.6816 102.072C99.0967 102.437 99.2129 102.454 102.417 102.454C105.621 102.454 105.737 102.437 106.152 102.072C106.8 101.524 106.8 100.561 106.169 100.03C105.721 99.6317 105.654 99.6317 102.417 99.6317C99.1797 99.6317 99.1133 99.6317 98.665 100.03Z" fill="white"/>
<path d="M121.276 100.063C120.612 100.744 120.778 101.89 121.625 102.271C122.173 102.52 128.05 102.52 128.531 102.255C129.428 101.79 129.577 100.777 128.88 100.063L128.432 99.6317H125.078H121.725L121.276 100.063Z" fill="white"/>
<path d="M133.18 104.28C130.889 105.094 128.913 106.521 126.639 108.962C124.68 111.07 123.634 111.817 122.123 112.183C119.965 112.714 117.989 112.133 116.047 110.373C113.374 107.966 110.502 107.501 107.431 109.012C105.92 109.775 104.559 111.02 102.251 113.826C98.4824 118.392 96.9385 119.388 93.6348 119.388C92.7549 119.388 91.5596 119.271 90.9619 119.122C89.501 118.79 87.4424 117.761 86.2139 116.748C81.0508 112.531 74.3271 112.863 70.0107 117.545C68.7988 118.856 68.1016 119.985 67.2881 121.861C66.0596 124.7 65.5615 127.771 65.5615 132.569C65.5615 136.122 65.7441 136.886 66.873 137.998C68.2842 139.426 65.1797 139.309 102.417 139.309C139.654 139.309 136.55 139.426 137.961 137.998C139.322 136.637 139.272 137.367 139.272 121.596C139.272 112.398 139.206 107.518 139.09 107.053C138.824 105.974 137.944 104.894 136.932 104.38C135.869 103.849 134.491 103.815 133.18 104.28ZM135.703 106.87C136.367 107.136 136.45 107.717 136.45 112.332V116.731H135.902C135.072 116.731 132.931 117.312 131.852 117.844C130.606 118.458 129.378 119.67 128.465 121.214C127.104 123.538 125.344 124.833 123.103 125.198C121.094 125.514 119.268 124.982 117.143 123.472C113.424 120.815 108.676 120.135 105.737 121.828C104.426 122.592 103.413 123.555 101.62 125.746C100.674 126.925 99.5117 128.253 99.0469 128.701C95.959 131.739 90.4473 131.457 86.1475 128.02C84.6035 126.792 82.9766 125.962 81.1504 125.514C79.9883 125.215 79.457 125.165 77.8467 125.248C74.8086 125.381 72.2354 126.393 69.7451 128.419L68.4502 129.481L68.5 128.95C68.8154 126.012 69.3799 124.019 70.4756 121.878C72.2354 118.458 74.875 116.698 78.2617 116.682C80.6523 116.665 82.2461 117.263 84.5205 119.022C86.0312 120.184 87.9238 121.197 89.5508 121.712C91.0117 122.177 94.6475 122.359 96.0918 122.06C98.7646 121.479 101.072 119.703 104.426 115.636C107.397 112.033 108.792 111.004 110.801 111.02C112.112 111.02 113.042 111.452 114.437 112.714C117.309 115.32 121.276 115.934 124.63 114.308C125.742 113.76 126.24 113.345 128.349 111.236C130.905 108.663 131.968 107.833 133.562 107.185C134.541 106.77 135.205 106.687 135.703 106.87ZM136.417 127.605L136.367 135.641L135.985 136.022L135.604 136.404H102.417H69.2305L68.8652 136.056C68.3838 135.558 68.251 134.312 68.6162 133.748C69.1641 132.918 71.2891 130.793 72.3018 130.079C75.1074 128.07 78.1787 127.506 81.1338 128.435C82.3789 128.834 82.6445 128.983 85.6328 131.158C88.1895 133.017 92.207 133.98 95.3613 133.499C98.6982 132.984 100.441 131.756 103.845 127.506C106.684 123.953 108.178 123.256 111.448 123.953C112.843 124.252 114.486 124.999 115.615 125.846C117.707 127.423 119.583 128.087 121.924 128.087C123.75 128.103 124.862 127.838 126.489 127.058C128.05 126.294 129.644 124.767 130.656 123.057C131.503 121.612 132.2 120.849 133.13 120.384C133.91 119.985 135.338 119.587 136.002 119.57L136.467 119.554L136.417 127.605Z" fill="white"/>
</g>
<defs>
<linearGradient id="paint0_linear_12_99" x1="-12.4346" y1="91.2148" x2="228.124" y2="92.0983" gradientUnits="userSpaceOnUse">
<stop stop-color="#AA367C"/>
<stop offset="1" stop-color="#000835"/>
</linearGradient>
<clipPath id="clip0_12_99">
<rect width="204" height="204" fill="white"/>
</clipPath>
</defs>
</svg>
