<svg width="204" height="204" viewBox="0 0 204 204" fill="none" xmlns="http://www.w3.org/2000/svg">
<g clip-path="url(#clip0_12_125)">
<path d="M187.639 69.9024C193.092 67.8589 199.226 70.6146 200.696 76.2487C206.238 97.4866 204.802 120.051 196.436 140.546C186.737 164.31 168.435 183.543 145.182 194.409C121.928 205.275 95.4335 206.975 70.9823 199.169C46.5311 191.364 25.9213 174.628 13.2644 152.299C0.607574 129.97 -3.16593 103.69 2.69675 78.7019C8.55943 53.7137 23.6272 31.8543 44.8943 17.4845C66.1614 3.11471 92.0643 -2.70908 117.435 1.17496C139.317 4.52476 159.415 14.883 174.791 30.5469C178.869 34.7023 178.083 41.3808 173.529 45.0093C168.975 48.6377 162.385 47.8275 158.195 43.7835C146.212 32.2158 130.877 24.5645 114.244 22.0182C94.1183 18.9371 73.5703 23.5569 56.6996 34.9561C39.829 46.3553 27.876 63.6958 23.2253 83.5183C18.5746 103.34 21.5681 124.188 31.6084 141.901C41.6488 159.614 57.9981 172.89 77.3945 179.082C96.791 185.274 117.809 183.925 136.255 175.305C154.701 166.686 169.219 151.429 176.914 132.578C183.273 116.999 184.584 99.912 180.815 83.6883C179.497 78.0167 182.187 71.946 187.639 69.9024Z" fill="url(#paint0_linear_12_125)"/>
<path d="M134.026 59.2698C133.528 59.5354 133.097 60.1331 133.047 60.6145C132.947 61.511 133.08 61.76 134.574 63.2708L136.102 64.8313H118.404C99.8271 64.8313 98.8311 64.8645 95.1953 65.595C85.0352 67.6204 76.3857 73.8293 70.8408 83.0598L69.7949 84.803V76.4358V68.0852L70.5088 68.7659C72.9326 71.1399 73.3477 71.3557 74.543 70.8245C75.3232 70.4758 75.7715 69.8118 75.7715 68.9983C75.7715 68.3342 75.041 67.4709 71.7207 64.1672L68.9648 61.428H67.8857H66.8066L64.0508 64.1672C60.7305 67.4709 60 68.3342 60 68.9983C60 70.0774 60.8965 71.0071 61.9258 71.0071C62.6396 71.0071 63.3203 70.5588 64.6484 69.2307L65.7275 68.135L65.8105 86.7786C65.8936 105.123 65.9102 105.455 66.2754 107.381C67.0391 111.448 67.9355 114.271 69.5293 117.541C72.75 124.115 77.5312 129.262 84.0391 133.18L85.7822 134.226H77.415H69.0645L69.8779 133.363C70.3428 132.881 70.8408 132.4 70.9902 132.283C71.4717 131.902 71.9863 130.906 71.9863 130.341C71.9863 129.179 71.0898 128.249 69.9775 128.249C69.3135 128.249 68.4502 128.98 65.1465 132.3L62.4072 135.056V136.102V137.131L65.3955 140.119C68.9814 143.689 69.3633 144.021 69.9941 144.021C71.4551 144.021 72.4512 142.444 71.7705 141.182C71.6709 140.966 71.0068 140.202 70.3262 139.505L69.0811 138.227L87.8242 138.16C106.302 138.111 106.601 138.094 108.477 137.745C112.527 136.965 115.117 136.118 118.521 134.475C125.045 131.321 130.241 126.49 134.159 119.982L135.205 118.239V126.589V134.94L133.811 133.595C132.134 131.985 131.536 131.752 130.457 132.217C129.262 132.748 128.88 134.027 129.61 135.023C129.826 135.305 131.387 136.915 133.063 138.575L136.118 141.614H137.114H138.11L141.165 138.575C142.842 136.915 144.402 135.305 144.618 135.023C145.78 133.429 143.904 131.321 142.161 132.25C141.945 132.35 141.182 133.014 140.484 133.695L139.189 134.94V117.342C139.189 106.302 139.123 99.0803 139.023 98.0178C138.077 88.7043 133.578 79.9553 126.655 73.9788C124.646 72.2522 123.269 71.2395 120.961 69.8616L119.218 68.8157H127.568H135.919L134.674 70.094C133.263 71.5549 133.014 71.9534 133.014 72.717C133.014 74.3606 134.724 75.3401 135.969 74.4104C136.251 74.2112 137.861 72.6838 139.538 71.0071L142.593 67.969V66.9065V65.8274L139.854 63.0715C135.736 58.9211 135.238 58.6057 134.026 59.2698ZM107.812 69.2971C114.852 70.5422 120.812 73.6633 125.775 78.7102C130.54 83.5745 133.462 89.2854 134.74 96.2083C135.238 98.9475 135.238 104.094 134.74 106.833C133.396 114.105 130.291 119.965 125.062 125.012C120.197 129.694 114.52 132.582 107.812 133.744C99.2461 135.239 90.165 132.997 82.9102 127.602C81.3662 126.456 78.5439 123.75 77.249 122.173C73.6631 117.79 71.3389 112.694 70.2598 106.833C69.7617 104.094 69.7617 98.9475 70.2598 96.2083C71.6045 88.9036 74.709 83.0764 79.9385 78.0295C85.2178 72.9329 91.6758 69.8948 99.1797 68.9817C101.139 68.7493 105.621 68.9153 107.812 69.2971Z" fill="white"/>
<path d="M98.1836 76.4026C97.7851 76.552 97.1709 77.1663 97.0215 77.5647C96.9385 77.7473 96.7226 79.3245 96.5234 81.051C95.9922 85.8821 96.208 85.301 94.6475 86.1145C93.9004 86.4963 92.9707 87.0608 92.5889 87.3596L91.8916 87.8909L88.3555 86.3801C84.6035 84.7698 83.8564 84.5872 83.043 85.1184C82.7939 85.2844 81.7978 86.8118 80.6025 88.8538C78.4277 92.5891 78.2617 93.1204 78.8926 94.0999C79.0752 94.3489 80.5361 95.5442 82.1797 96.7561L85.1514 98.9641V101.521L85.1348 104.094L82.1797 106.285C80.5361 107.497 79.0752 108.693 78.8926 108.942C78.2451 109.938 78.4277 110.452 80.6357 114.121C81.748 115.981 82.8769 117.657 83.126 117.857C83.9228 118.438 84.5537 118.305 88.3555 116.661L91.8916 115.151L92.5889 115.682C92.9707 115.981 93.9004 116.545 94.6475 116.927C96.208 117.74 95.9922 117.159 96.54 122.007C96.7226 123.783 96.9883 125.361 97.1211 125.626C97.2539 125.892 97.6025 126.257 97.9014 126.44C98.3994 126.739 98.6982 126.755 102.699 126.722L106.949 126.672L107.397 126.257C107.646 126.025 107.912 125.676 107.979 125.477C108.062 125.294 108.277 123.717 108.477 121.99C109.008 117.159 108.792 117.74 110.353 116.927C111.1 116.545 112.029 115.981 112.411 115.682L113.108 115.151L116.645 116.661C120.38 118.272 121.144 118.454 121.957 117.923C122.189 117.757 123.219 116.213 124.397 114.171C126.572 110.436 126.738 109.905 126.107 108.942C125.925 108.693 124.464 107.497 122.82 106.285L119.849 104.077V101.521L119.865 98.9475L122.82 96.7561C124.464 95.5442 125.925 94.3489 126.107 94.0999C126.755 93.1038 126.572 92.5891 124.364 88.9202C123.252 87.0608 122.123 85.384 121.874 85.1848C121.094 84.6038 120.446 84.7532 116.645 86.3801L113.108 87.8909L112.411 87.3596C112.029 87.0608 111.1 86.4963 110.353 86.1145C108.792 85.301 109.008 85.8821 108.46 81.0344C108.277 79.2581 108.012 77.6809 107.879 77.4153C107.746 77.1497 107.397 76.7844 107.099 76.6184C106.601 76.3196 106.252 76.2864 102.5 76.303C100.259 76.303 98.3164 76.3528 98.1836 76.4026ZM104.393 80.885C104.442 81.2336 104.642 82.7278 104.824 84.2053C105.339 88.2395 105.173 87.9573 107.746 89.2356C108.941 89.8333 110.436 90.7131 111.066 91.1946C112.129 92.0247 112.262 92.0911 112.959 92.0247C113.374 91.9749 114.486 91.6096 115.449 91.1946C116.412 90.7795 117.807 90.1653 118.554 89.8499L119.915 89.2522L120.911 90.9124L121.907 92.5559L120.048 93.9338C119.035 94.6809 117.69 95.6604 117.093 96.1086C115.532 97.2375 115.516 97.2874 115.765 99.8606C115.931 101.571 115.931 102.318 115.765 103.579C115.482 105.721 115.549 105.854 117.757 107.448C118.72 108.161 120.048 109.124 120.712 109.606L121.907 110.486L120.911 112.146C120.363 113.059 119.849 113.773 119.799 113.74C119.732 113.706 118.321 113.075 116.645 112.328C112.843 110.635 112.511 110.618 110.884 111.963C109.987 112.694 108.443 113.573 106.982 114.138C105.97 114.536 105.521 114.885 105.322 115.4C105.239 115.599 105.023 117.06 104.841 118.637C104.642 120.231 104.442 121.808 104.393 122.156L104.293 122.771H102.5H100.707L100.607 122.156C100.558 121.808 100.358 120.314 100.176 118.836C99.6611 114.802 99.8271 115.084 97.2539 113.806C96.0586 113.208 94.5644 112.328 93.9336 111.847C92.8711 111.017 92.7383 110.95 92.041 111.017C91.6094 111.067 90.082 111.631 88.3887 112.362C86.7949 113.042 85.3838 113.64 85.251 113.673C85.1182 113.706 84.6533 113.075 84.0557 112.096L83.0928 110.486L84.9521 109.108C85.9814 108.361 87.3096 107.381 87.9072 106.933C89.4678 105.804 89.4844 105.754 89.2353 103.181C89.0693 101.471 89.0693 100.724 89.2353 99.4622C89.5176 97.2874 89.4844 97.2043 86.9111 95.345C85.7656 94.4983 84.4375 93.5354 83.956 93.1868L83.0928 92.5559L84.0557 90.9456C84.6367 89.9661 85.1182 89.3352 85.251 89.3684C85.3838 89.4016 86.8115 90.0159 88.4219 90.7463C92.1406 92.4065 92.4893 92.4231 94.1162 91.0784C95.0127 90.3479 96.5732 89.468 98.0176 88.9036C99.0469 88.5051 99.6113 88.0569 99.7441 87.509C99.7939 87.3098 99.9766 85.8821 100.176 84.3381C100.358 82.7776 100.558 81.2336 100.607 80.885L100.707 80.2708H102.5H104.293L104.393 80.885Z" fill="white"/>
<path d="M100.757 92.7219C98.6485 93.1535 96.6563 94.4153 95.3447 96.1584C91.543 101.189 94.1494 108.643 100.259 110.237C101.637 110.585 103.729 110.552 105.007 110.154C107.696 109.323 110.303 106.717 111.133 104.044C111.531 102.749 111.564 100.674 111.216 99.2795C110.037 94.7639 105.322 91.8088 100.757 92.7219ZM104.642 96.8889C105.621 97.3205 106.401 98.0676 106.949 99.1135C107.348 99.844 107.397 100.126 107.397 101.521C107.397 102.915 107.348 103.197 106.949 103.928C106.036 105.671 104.542 106.568 102.583 106.568C100.641 106.568 98.9805 105.538 98.0508 103.779C97.669 103.048 97.6026 102.733 97.6026 101.521C97.6026 100.309 97.669 99.9934 98.0508 99.2629C99.3457 96.8059 102.168 95.7932 104.642 96.8889Z" fill="white"/>
</g>
<defs>
<linearGradient id="paint0_linear_12_125" x1="-12.4346" y1="91.2148" x2="228.124" y2="92.0983" gradientUnits="userSpaceOnUse">
<stop stop-color="#AA367C"/>
<stop offset="1" stop-color="#000835"/>
</linearGradient>
<clipPath id="clip0_12_125">
<rect width="204" height="204" fill="white"/>
</clipPath>
</defs>
</svg>
