<svg width="204" height="204" viewBox="0 0 204 204" fill="none" xmlns="http://www.w3.org/2000/svg">
<g clip-path="url(#clip0_12_86)">
<path d="M187.639 69.9024C193.092 67.8589 199.226 70.6146 200.696 76.2487C206.238 97.4866 204.802 120.051 196.436 140.546C186.737 164.31 168.435 183.543 145.182 194.409C121.928 205.275 95.4335 206.975 70.9823 199.169C46.5311 191.364 25.9213 174.628 13.2644 152.299C0.607559 129.97 -3.16595 103.69 2.69673 78.7019C8.55941 53.7137 23.6272 31.8543 44.8943 17.4845C66.1614 3.11471 92.0643 -2.70908 117.435 1.17496C139.317 4.52476 159.415 14.883 174.791 30.5469C178.869 34.7023 178.083 41.3808 173.529 45.0093C168.975 48.6377 162.385 47.8275 158.195 43.7835C146.212 32.2158 130.877 24.5645 114.244 22.0182C94.1183 18.9371 73.5703 23.5569 56.6996 34.9561C39.829 46.3553 27.876 63.6958 23.2253 83.5183C18.5746 103.34 21.5681 124.188 31.6084 141.901C41.6488 159.614 57.9981 172.89 77.3945 179.082C96.791 185.274 117.809 183.925 136.255 175.305C154.701 166.686 169.219 151.429 176.914 132.578C183.273 116.999 184.584 99.912 180.815 83.6883C179.497 78.0167 182.187 71.946 187.639 69.9024Z" fill="url(#paint0_linear_12_86)"/>
<path d="M83.748 62.3154C83.4326 62.4814 82.9512 62.8965 82.6689 63.2285L82.1709 63.8594L82.1211 69.2383L82.0713 74.6172L72.9072 74.6504L63.7432 74.7002L63.2119 75.082C62.9297 75.2812 62.5312 75.7793 62.3486 76.1611L62 76.8916L62.0332 101.711L62.083 126.514L62.5312 127.194C62.7637 127.56 63.2451 127.991 63.6104 128.174C64.2246 128.473 64.8721 128.489 82.3369 128.489C99.8018 128.489 100.449 128.473 101.063 128.174C101.429 127.991 101.91 127.56 102.143 127.194L102.591 126.514L102.641 101.711L102.674 76.8916L102.325 76.1611C102.143 75.7793 101.744 75.2812 101.462 75.082L100.931 74.7002L92.7461 74.6504L84.5781 74.6006L84.6113 69.5869L84.6611 64.5732L105.778 64.5234L126.896 64.4902L126.945 69.3711L126.995 74.252L127.493 74.8828C128.489 76.0947 128.572 76.1113 133.835 76.1113H138.533V81.0918V86.0889L138.948 86.4873C139.463 87.0186 140.094 87.0186 140.608 86.4873L141.023 86.0889V80.2285V74.3682L134.831 68.1924L128.655 62H106.492C85.2256 62 84.2959 62.0166 83.748 62.3154ZM133.271 73.5879C131.378 73.6045 129.734 73.5879 129.618 73.5547C129.452 73.4883 129.402 72.625 129.402 69.8525V66.2334L133.055 69.8857L136.707 73.5381L133.271 73.5879ZM100.15 101.429C100.184 124.073 100.167 125.684 99.9014 125.866C99.5361 126.148 65.3203 126.182 64.8057 125.916C64.4902 125.733 64.4902 125.302 64.4902 101.528C64.4902 88.2139 64.54 77.2734 64.6064 77.2236C64.6562 77.1572 72.6748 77.124 82.4033 77.1406L100.101 77.1904L100.15 101.429Z" fill="white"/>
<path d="M68.79 80.6768C67.8936 81.1582 67.8105 81.6728 67.8105 86.1553C67.8105 90.7207 67.8936 91.1523 68.873 91.6836C69.3379 91.9492 70.4502 91.9658 82.3369 91.9658C96.7803 91.9658 96.0166 92.0322 96.5977 90.8203C96.9961 89.9736 96.9961 82.3369 96.5977 81.4902C96.083 80.4111 96.2988 80.4277 86.6865 80.4277C78.4688 80.4277 77.9707 80.4443 77.7217 80.7266C77.3232 81.1748 77.3564 82.1377 77.7881 82.5195C78.1201 82.8184 78.5352 82.835 86.2549 82.8848L94.373 82.9346V86.2383V89.5586H82.3369H70.3008V86.2383V82.918H72.5254C74.8164 82.918 75.5137 82.7851 75.8789 82.2871C76.2109 81.8721 76.1611 81.208 75.7793 80.793C75.4473 80.4443 75.3145 80.4277 72.3262 80.4277C69.9688 80.4443 69.1221 80.4941 68.79 80.6768Z" fill="white"/>
<path d="M68.1426 94.9043C67.8105 95.2695 67.8105 95.4023 67.8105 108.966C67.8271 123.758 67.7773 123.061 68.707 123.426C69.3379 123.658 95.3359 123.658 95.9668 123.426C96.8965 123.061 96.8467 123.758 96.8633 108.966C96.8633 95.4023 96.8633 95.2695 96.5312 94.9043L96.1826 94.5391H82.3369H68.4912L68.1426 94.9043ZM81.0918 102.425V107.82H75.6963H70.3008V102.425V97.0293H75.6963H81.0918V102.425ZM94.373 102.425V107.82H88.9775H83.582V102.425V97.0293H88.9775H94.373V102.425ZM81.0918 115.706V121.102H75.6963H70.3008V115.706V110.311H75.6963H81.0918V115.706ZM94.373 115.706V121.102H88.9775H83.582V115.706V110.311H88.9775H94.373V115.706Z" fill="white"/>
<path d="M74.8662 98.6064C74.501 98.9551 74.4512 99.1543 74.4512 100.101V101.18H73.3223C71.9941 101.18 71.6289 101.429 71.6289 102.375C71.6289 103.222 72.0605 103.521 73.3721 103.62L74.4512 103.72V104.699C74.4512 105.513 74.5176 105.745 74.8662 106.077C75.082 106.31 75.4639 106.492 75.6963 106.492C75.9287 106.492 76.3105 106.31 76.5264 106.077C76.875 105.745 76.9414 105.513 76.9414 104.699V103.72L78.0205 103.62C79.3486 103.521 79.7637 103.222 79.7637 102.342C79.7637 101.429 79.3818 101.18 78.0537 101.18H76.9414V100.101C76.9414 99.1543 76.8916 98.9551 76.5264 98.6064C76.3105 98.374 75.9287 98.1914 75.6963 98.1914C75.4639 98.1914 75.082 98.374 74.8662 98.6064Z" fill="white"/>
<path d="M85.1924 101.479C84.7939 101.927 84.8271 102.89 85.2588 103.271C85.5742 103.554 85.9062 103.587 88.9775 103.587C92.0488 103.587 92.3808 103.554 92.6963 103.271C93.1445 102.856 93.1777 101.844 92.7461 101.462C92.4805 101.213 91.9658 101.18 88.9443 101.18C85.7734 101.18 85.4414 101.213 85.1924 101.479Z" fill="white"/>
<path d="M72.8906 112.651C72.21 113.183 72.293 113.963 73.1396 114.876L73.8369 115.623L73.1396 116.37C72.293 117.283 72.21 118.063 72.8906 118.595C73.5547 119.109 74.0029 119.026 74.8828 118.213L75.6963 117.482L76.4932 118.213C77.4062 119.026 77.8379 119.109 78.5019 118.595C79.1826 118.063 79.0996 117.283 78.2529 116.37L77.5557 115.623L78.2529 114.876C78.8506 114.229 78.9502 114.029 78.9004 113.515C78.8672 113.1 78.7178 112.817 78.4023 112.585C77.8213 112.153 77.29 112.303 76.3769 113.133L75.6631 113.797L75.1816 113.282C74.667 112.734 73.9531 112.303 73.5713 112.303C73.4385 112.303 73.1396 112.452 72.8906 112.651Z" fill="white"/>
<path d="M85.2422 112.801C84.7441 113.299 84.7939 114.179 85.3418 114.61C85.7568 114.942 86.0058 114.959 88.9775 114.959C91.9492 114.959 92.1982 114.942 92.6133 114.61C93.1611 114.179 93.2109 113.299 92.7129 112.801C92.3974 112.485 92.165 112.469 88.9775 112.469C85.79 112.469 85.5576 112.485 85.2422 112.801Z" fill="white"/>
<path d="M85.3418 116.636C84.7939 117.067 84.7441 117.947 85.2422 118.445C85.5576 118.761 85.79 118.777 88.9775 118.777C92.165 118.777 92.3974 118.761 92.7129 118.445C93.2109 117.947 93.1611 117.067 92.6133 116.636C92.1982 116.304 91.9492 116.287 88.9775 116.287C86.0058 116.287 85.7568 116.304 85.3418 116.636Z" fill="white"/>
<path d="M108.186 80.0459C107.023 80.6104 107.073 79.9131 107.073 94.041C107.073 105.695 107.09 106.791 107.355 107.256C107.953 108.352 107.438 108.318 121.351 108.318C135.263 108.318 134.748 108.352 135.346 107.256C135.611 106.791 135.628 105.695 135.628 94.041C135.628 82.3867 135.611 81.291 135.346 80.8262C134.748 79.7305 135.263 79.7637 121.317 79.7637C110.028 79.7637 108.684 79.7969 108.186 80.0459ZM116.121 85.3252V88.3965H112.884H109.646V85.3252V82.2539H112.884H116.121V85.3252ZM133.055 85.3252V88.3965H125.833H118.611V85.3252V82.2539H125.833H133.055V85.3252ZM116.121 94.041V97.1953H112.884H109.646V94.041V90.8867H112.884H116.121V94.041ZM133.055 94.041V97.1953H125.833H118.611V94.041V90.8867H125.833H133.055V94.041ZM116.121 102.757V105.828H112.884H109.646V102.757V99.6856H112.884H116.121V102.757ZM133.055 102.757V105.828H125.833H118.611V102.757V99.6856H125.833H133.055V102.757Z" fill="white"/>
<path d="M138.898 89.2764L138.533 89.6582L138.5 114.063L138.45 138.45H111.556H84.6611L84.5781 134.516C84.5117 131.079 84.4619 130.531 84.2129 130.232C83.7978 129.768 82.8682 129.784 82.4199 130.266C82.0879 130.631 82.0713 130.78 82.1211 134.897L82.1709 139.164L82.6689 139.795C82.9512 140.127 83.4326 140.542 83.748 140.708C84.2959 141.007 85.3418 141.023 111.556 141.023C137.77 141.023 138.815 141.007 139.363 140.708C139.679 140.542 140.16 140.127 140.442 139.795L140.94 139.164L140.99 114.478L141.023 89.7744L140.675 89.3262C140.227 88.7617 139.413 88.7285 138.898 89.2764Z" fill="white"/>
<path d="M107.438 113.1C107.04 113.548 107.073 114.511 107.505 114.893C107.837 115.191 108.318 115.208 121.351 115.208C134.383 115.208 134.864 115.191 135.196 114.893C135.645 114.478 135.678 113.465 135.246 113.083C134.964 112.817 133.752 112.801 121.317 112.801C108.335 112.801 107.687 112.817 107.438 113.1Z" fill="white"/>
<path d="M107.438 119.74C107.04 120.188 107.073 121.151 107.505 121.533C107.837 121.832 108.219 121.849 113.78 121.898C117.034 121.932 119.939 121.898 120.238 121.849C121.334 121.649 121.815 120.487 121.102 119.773C120.786 119.458 120.554 119.441 114.245 119.441C108.119 119.441 107.687 119.458 107.438 119.74Z" fill="white"/>
<path d="M123.011 119.773C122.596 120.238 122.629 121.035 123.077 121.483C123.426 121.832 123.542 121.849 127.344 121.849C131.262 121.849 131.262 121.849 131.577 121.45C131.959 120.985 131.976 120.305 131.627 119.807C131.378 119.441 131.328 119.441 127.344 119.441C123.509 119.441 123.293 119.458 123.011 119.773Z" fill="white"/>
<path d="M133.387 119.807C132.673 120.587 133.221 121.766 134.3 121.766C134.665 121.766 134.98 121.633 135.213 121.4C135.927 120.62 135.379 119.441 134.3 119.441C133.935 119.441 133.619 119.574 133.387 119.807Z" fill="white"/>
<path d="M108.733 126.414C108.003 127.211 108.567 128.406 109.663 128.406C110.377 128.406 110.809 127.958 110.809 127.244C110.809 127.012 110.692 126.646 110.543 126.447C110.211 125.966 109.165 125.933 108.733 126.414Z" fill="white"/>
<path d="M112.635 126.414C111.921 127.128 112.402 128.29 113.498 128.489C113.797 128.539 118.728 128.572 124.438 128.539C134.399 128.489 134.864 128.473 135.196 128.174C135.645 127.759 135.678 126.746 135.246 126.364C134.964 126.115 133.935 126.082 123.957 126.082C113.183 126.082 112.967 126.082 112.635 126.414Z" fill="white"/>
</g>
<defs>
<linearGradient id="paint0_linear_12_86" x1="-12.4346" y1="91.2148" x2="228.124" y2="92.0983" gradientUnits="userSpaceOnUse">
<stop stop-color="#AA367C"/>
<stop offset="1" stop-color="#000835"/>
</linearGradient>
<clipPath id="clip0_12_86">
<rect width="204" height="204" fill="white"/>
</clipPath>
</defs>
</svg>
