<svg width="204" height="204" viewBox="0 0 204 204" fill="none" xmlns="http://www.w3.org/2000/svg">
<g clip-path="url(#clip0_12_112)">
<path d="M187.639 69.9024C193.092 67.8589 199.226 70.6146 200.696 76.2487C206.238 97.4866 204.802 120.051 196.436 140.546C186.737 164.31 168.435 183.543 145.182 194.409C121.928 205.275 95.4335 206.975 70.9823 199.169C46.5311 191.364 25.9213 174.628 13.2644 152.299C0.607573 129.97 -3.16594 103.69 2.69674 78.7019C8.55942 53.7137 23.6272 31.8543 44.8943 17.4845C66.1614 3.11471 92.0643 -2.70908 117.435 1.17496C139.317 4.52476 159.415 14.883 174.791 30.5469C178.869 34.7023 178.083 41.3808 173.529 45.0093C168.975 48.6377 162.385 47.8275 158.195 43.7835C146.212 32.2158 130.877 24.5645 114.244 22.0182C94.1183 18.9371 73.5703 23.5569 56.6996 34.9561C39.829 46.3553 27.876 63.6958 23.2253 83.5183C18.5746 103.34 21.5681 124.188 31.6084 141.901C41.6488 159.614 57.9981 172.89 77.3945 179.082C96.791 185.274 117.809 183.925 136.255 175.305C154.701 166.686 169.219 151.429 176.914 132.578C183.273 116.999 184.584 99.912 180.815 83.6883C179.497 78.0167 182.187 71.946 187.639 69.9024Z" fill="url(#paint0_linear_12_112)"/>
<path d="M66.8564 59.249C63.8184 59.9131 61.1621 62.4199 60.2656 65.458C59.917 66.6533 59.917 69.127 60.2656 70.3057C60.8633 72.2979 62.0254 73.9414 63.7021 75.1201C65.3955 76.3154 66.6406 76.6807 68.8818 76.6641C70.459 76.6475 70.874 76.5811 71.9365 76.1992L73.165 75.7344L78.5273 81.0967C81.4824 84.0518 83.9062 86.5088 83.9062 86.5586C83.9062 86.6084 83.0928 87.1064 82.1133 87.6543L80.3369 88.667L80.2871 93.8467L80.2539 99.0098H74.8252H69.3799L70.6748 97.7148L71.9531 96.4365L70.21 94.6934L68.4668 92.9502L64.2334 97.1836C61.9092 99.5078 60 101.45 60 101.5C60 101.683 68.168 109.967 68.3506 109.967C68.4502 109.967 69.3135 109.203 70.2432 108.273L71.9531 106.563L70.6748 105.285L69.3799 103.99H74.8252H80.2539V109.12V114.267L81.9639 115.263C82.8936 115.811 83.7402 116.292 83.8232 116.342C83.9229 116.375 81.5654 118.849 78.5938 121.82C74.3604 126.087 73.1318 127.232 72.8662 127.166C72.6836 127.116 72.0859 126.917 71.5381 126.718C70.127 126.17 67.5205 126.17 65.9766 126.718C63.2041 127.681 61.0791 129.905 60.2656 132.694C59.917 133.89 59.917 136.347 60.2656 137.542C61.0791 140.331 63.2041 142.556 65.9766 143.519C67.5039 144.066 70.0938 144.066 71.6045 143.519C73.5137 142.854 75.207 141.51 76.2861 139.816C77.7637 137.525 78.0127 134.155 76.9004 131.565L76.585 130.818L82.4453 124.958C85.666 121.737 88.3721 119.098 88.4551 119.098C88.5215 119.098 91.1279 120.559 94.2158 122.352L99.8438 125.605V130.021V134.454L98.5488 133.159L97.2705 131.881L95.4775 133.674L93.7012 135.45L97.9844 139.733L102.251 144L106.567 139.684L110.884 135.367L109.141 133.624L107.397 131.881L106.119 133.159L104.824 134.454V130.055V125.655L110.419 122.418C113.49 120.642 116.08 119.164 116.18 119.131C116.279 119.114 119.002 121.737 122.223 124.958L128.1 130.835L127.635 132.063C127.004 133.757 126.971 136.23 127.535 137.891C128.714 141.294 131.636 143.602 135.205 143.934C138.758 144.266 142.344 142.224 143.904 138.986C147.357 131.798 140.385 124.128 132.864 126.834L131.669 127.266L126.307 121.903C123.352 118.948 120.928 116.491 120.928 116.441C120.928 116.392 121.708 115.894 122.671 115.362L124.397 114.366L124.414 109.17V103.99H129.843H135.288L133.993 105.285L132.715 106.563L134.458 108.307L136.201 110.05L140.484 105.767L144.751 101.5L140.484 97.2334L136.201 92.9502L134.458 94.6934L132.715 96.4365L133.993 97.7148L135.288 99.0098H129.843H124.414V93.8135V88.6338L122.671 87.6709C121.708 87.1396 120.928 86.6416 120.928 86.5918C120.928 86.5254 123.352 84.0518 126.307 81.0967L131.686 75.7178L132.499 76.0498C138.044 78.4072 144.27 74.6055 144.784 68.5459C144.9 67.0684 144.535 65.2588 143.805 63.7979C143.174 62.5361 141.447 60.7598 140.235 60.1123C139.156 59.5479 137.081 59 135.952 59C134.84 59 132.731 59.5479 131.735 60.0957C129.859 61.1084 128.266 63.0176 127.535 65.0928C126.971 66.7695 127.004 69.2432 127.635 70.9365L128.1 72.165L122.223 78.042C119.002 81.2627 116.279 83.8857 116.18 83.8691C116.063 83.8359 113.474 82.3584 110.402 80.582L104.824 77.3613V72.9619V68.5459L106.119 69.8408L107.397 71.1191L109.141 69.376L110.884 67.6328L106.567 63.3164L102.251 59L97.9844 63.2666L93.7012 67.5498L95.4775 69.3262L97.2705 71.1191L98.5488 69.8408L99.8438 68.5459L99.8105 73.0117L99.7607 77.4609L94.1992 80.6816C91.1445 82.4414 88.5547 83.9023 88.4717 83.9023C88.3721 83.9023 85.666 81.2627 82.4619 78.042L76.6016 72.1982L77.0498 71.1191C77.5811 69.8076 77.7637 67.3672 77.4316 65.9561C76.668 62.6689 73.9121 59.9297 70.6748 59.249C69.2969 58.9502 68.2178 58.9502 66.8564 59.249ZM70.5752 64.4619C71.8867 65.126 72.6172 66.3711 72.6172 67.915C72.6172 69.1436 72.2021 70.0566 71.3057 70.8037C69.7783 72.1152 67.7529 72.0986 66.2422 70.7539C65.3789 70.0068 64.9639 69.0439 64.9639 67.8652C64.9639 64.96 67.9854 63.1338 70.5752 64.4619ZM137.23 64.2461C138.077 64.5283 139.023 65.3584 139.472 66.1885C139.671 66.5371 139.771 67.1016 139.771 67.8984C139.771 68.9111 139.704 69.1768 139.272 69.8906C138.957 70.3887 138.459 70.8867 137.961 71.2021C137.247 71.6338 136.981 71.7002 135.952 71.7002C134.923 71.7002 134.657 71.6338 133.943 71.2021C133.445 70.8867 132.947 70.3887 132.632 69.8906C132.2 69.1768 132.134 68.9111 132.134 67.8984C132.15 66.5537 132.383 65.9727 133.312 65.0762C134.358 64.0635 135.803 63.748 137.23 64.2461ZM109.771 85.9775C115.798 89.4473 116.91 90.1611 116.694 90.3271C116.13 90.7256 102.417 98.5947 102.317 98.5615C102.268 98.5449 98.9639 96.6523 94.9795 94.3447L87.7246 90.1611L94.332 86.3594C97.9512 84.2676 101.222 82.375 101.587 82.1592C101.952 81.9268 102.334 81.7773 102.434 81.7939C102.517 81.8105 105.837 83.6865 109.771 85.9775ZM93.668 99.3418L99.8438 102.911V111.345C99.8438 116.093 99.7773 119.762 99.6943 119.729C99.6113 119.695 96.3242 117.819 92.3896 115.545L85.2344 111.411V102.961V94.4941L86.3633 95.1416C86.9941 95.4902 90.2812 97.3828 93.668 99.3418ZM119.317 111.478C119.151 111.644 105.422 119.562 105.073 119.695C104.841 119.795 104.824 118.965 104.857 111.361L104.907 102.928L112.129 98.7441L119.351 94.5771L119.4 102.961C119.417 107.576 119.384 111.411 119.317 111.478ZM70.376 131.615C71.8369 132.279 72.6172 133.508 72.6172 135.118C72.6172 136.729 71.8369 137.957 70.376 138.621C68.9316 139.302 67.4541 139.069 66.2422 137.99C64.499 136.479 64.5156 133.674 66.2754 132.213C67.5205 131.15 68.9482 130.951 70.376 131.615ZM137.994 131.831C138.459 132.113 138.974 132.628 139.272 133.109C139.704 133.823 139.771 134.089 139.771 135.118C139.771 136.147 139.704 136.413 139.272 137.127C138.957 137.625 138.459 138.123 137.961 138.438C137.247 138.87 136.981 138.937 135.952 138.937C134.923 138.937 134.657 138.87 133.943 138.438C133.445 138.123 132.947 137.625 132.632 137.127C132.2 136.413 132.134 136.147 132.134 135.135C132.134 134.155 132.2 133.823 132.599 133.176C133.711 131.283 136.135 130.669 137.994 131.831Z" fill="white"/>
</g>
<defs>
<linearGradient id="paint0_linear_12_112" x1="-12.4346" y1="91.2148" x2="228.124" y2="92.0983" gradientUnits="userSpaceOnUse">
<stop stop-color="#AA367C"/>
<stop offset="1" stop-color="#000835"/>
</linearGradient>
<clipPath id="clip0_12_112">
<rect width="204" height="204" fill="white"/>
</clipPath>
</defs>
</svg>
