<svg width="204" height="204" viewBox="0 0 204 204" fill="none" xmlns="http://www.w3.org/2000/svg">
<g clip-path="url(#clip0_25_2)">
<path d="M187.639 69.9024C193.092 67.8589 199.226 70.6146 200.696 76.2487C206.238 97.4866 204.802 120.051 196.436 140.546C186.737 164.31 168.435 183.543 145.182 194.409C121.928 205.275 95.4335 206.975 70.9823 199.169C46.5311 191.364 25.9213 174.628 13.2644 152.299C0.607559 129.97 -3.16595 103.69 2.69673 78.7019C8.55941 53.7137 23.6272 31.8543 44.8943 17.4845C66.1614 3.11471 92.0643 -2.70908 117.435 1.17496C139.317 4.52476 159.415 14.883 174.791 30.5469C178.869 34.7023 178.083 41.3808 173.529 45.0093C168.975 48.6377 162.385 47.8275 158.195 43.7835C146.212 32.2158 130.877 24.5645 114.244 22.0182C94.1183 18.9371 73.5703 23.5569 56.6996 34.9561C39.829 46.3553 27.876 63.6958 23.2253 83.5183C18.5746 103.34 21.5681 124.188 31.6084 141.901C41.6488 159.614 57.9981 172.89 77.3945 179.082C96.791 185.274 117.809 183.925 136.255 175.305C154.701 166.686 169.219 151.429 176.914 132.578C183.273 116.999 184.584 99.912 180.815 83.6883C179.497 78.0167 182.187 71.946 187.639 69.9024Z" fill="url(#paint0_linear_25_2)"/>
<path d="M98.2314 59.5094C89.7277 60.1789 83.3499 61.6018 78.7297 63.8784C76.9386 64.7656 76.587 65.2176 77.0725 66.0546C77.4742 66.7744 78.0769 66.8915 79.1147 66.4396C83.8353 64.3471 87.4009 63.326 92.791 62.5727C99.8384 61.5851 108.191 61.7357 114.971 62.9912C124.814 64.8158 131.811 68.9003 132.397 73.1354C132.815 76.182 129.267 79.6471 123.374 81.9739C120.194 83.2462 115.289 84.3845 110.702 84.9536C107.221 85.3888 97.7459 85.3721 94.2976 84.9536C81.9437 83.4136 73.2893 79.078 72.603 74.0728C72.4524 73.0015 72.9043 71.6623 73.7915 70.4738C74.6955 69.2853 74.7792 68.6325 74.1096 68.1135C73.4233 67.5779 72.9043 67.6616 72.1845 68.4483C71.381 69.3188 70.4436 71.1099 70.2092 72.2482C70.0921 72.8341 70.0251 76.0314 70.0251 81.5387C70.0251 88.4522 70.0753 90.1261 70.2762 90.9129C70.4938 91.7499 70.4938 91.9842 70.2762 92.8212C69.9079 94.2274 69.9079 110.264 70.2762 111.67C70.4938 112.507 70.4938 112.741 70.2762 113.578C70.0921 114.298 70.0251 115.554 70.0251 118.667C70.0251 123.254 70.0586 123.405 71.1467 123.605C71.5819 123.689 71.766 123.622 72.1008 123.287C72.4691 122.919 72.5361 122.701 72.5361 121.915V120.977L73.8417 122.049C77.5914 125.095 82.8811 127.154 90.2801 128.426C94.6324 129.18 97.5283 129.414 102.5 129.414C107.472 129.414 110.368 129.18 114.72 128.426C122.102 127.154 127.409 125.095 131.175 122.032L132.481 120.961L132.43 126.468L132.38 131.958L131.895 132.913C129.652 137.332 121.382 140.881 110.25 142.203C106.769 142.605 98.2314 142.605 94.7496 142.203C83.6344 140.881 75.3483 137.332 73.1052 132.913C72.6532 132.042 72.6198 131.791 72.5695 129.866C72.5193 128.025 72.4691 127.723 72.151 127.405C71.6991 126.886 70.9625 126.903 70.4436 127.439C70.0586 127.807 70.0251 127.958 70.0251 129.598C70.0251 130.569 70.1088 131.758 70.2092 132.243C71.3475 137.7 79.3993 142.32 90.9497 144.162C95.4694 144.881 97.1433 145.015 102.584 144.999C109.28 144.999 113.531 144.53 118.737 143.224C127.928 140.948 133.904 136.813 134.807 132.126C135.075 130.67 134.958 113.913 134.674 113.193C134.506 112.775 134.506 112.507 134.724 111.704C135.092 110.23 135.092 94.2608 134.724 92.7878C134.506 91.9842 134.506 91.7164 134.674 91.2979C134.958 90.5781 135.075 73.8217 134.807 72.3654C133.351 64.866 119.206 59.275 101.998 59.4257C100.29 59.4424 98.5997 59.4759 98.2314 59.5094ZM75.6831 81.7731C79.8513 84.5184 86.2458 86.4434 94.3813 87.4478C97.3609 87.7993 104.459 87.95 107.689 87.6989C118.436 86.8954 127.375 84.0329 131.644 80.0321L132.481 79.2454L132.43 84.8532L132.38 90.4442L131.912 91.3314C131.058 92.9551 129.267 94.5956 127.007 95.8176C126.371 96.1524 125.684 96.5876 125.484 96.7718C124.713 97.4581 125.199 98.8977 126.187 98.8977C126.973 98.8977 130.104 97.0229 131.543 95.7004C132.43 94.8802 132.531 95.1146 131.895 96.4705C129.853 100.823 121.433 104.472 110.535 105.761C106.367 106.246 98.5662 106.246 94.5487 105.761C87.0158 104.857 80.8557 102.965 76.8884 100.371C74.7624 98.9982 72.7035 96.5207 72.7035 95.3657C72.7035 95.0643 72.8206 95.1313 73.5907 95.8176C77.3403 99.2158 84.2705 101.693 93.5443 102.932C96.0552 103.284 97.1098 103.317 102.416 103.334C109.531 103.334 112.226 103.083 117.499 101.911C120.545 101.225 121.449 100.906 121.734 100.388C122.035 99.8351 121.868 99.1488 121.315 98.7805C120.897 98.5127 120.78 98.5294 118.352 99.1153C112.962 100.421 110.267 100.739 104.04 100.856C98.7168 100.957 96.0552 100.806 92.1214 100.237C82.5631 98.8308 74.9466 95.2317 73.055 91.1975L72.6198 90.2768L72.5695 84.7695L72.5193 79.2621L73.4065 80.0656C73.892 80.5176 74.9131 81.2876 75.6831 81.7731ZM73.373 100.823C74.8629 102.363 78.8636 104.539 82.245 105.661C96.072 110.247 115.808 109.477 127.007 103.886C128.898 102.949 130.773 101.71 131.627 100.823C131.945 100.505 132.263 100.237 132.33 100.237C132.414 100.237 132.464 102.698 132.43 105.711L132.38 111.201L131.895 112.105C129.451 116.759 120.512 120.425 108.945 121.513C106.149 121.781 98.8508 121.781 96.0552 121.513C84.4882 120.425 75.5492 116.759 73.1052 112.105L72.6198 111.201L72.5695 105.711C72.5361 102.698 72.5863 100.237 72.67 100.237C72.7369 100.237 73.055 100.505 73.373 100.823ZM74.3774 117.278C79.6002 121.496 90.6316 124.225 102.5 124.225C115.205 124.225 125.818 121.413 131.577 116.525C132.43 115.788 132.447 115.788 132.313 116.257C131.259 119.939 125.885 123.287 117.85 125.263C113.113 126.434 108.643 126.92 102.5 126.92C96.3398 126.92 92.1047 126.468 87.2167 125.279C79.1817 123.338 73.758 119.956 72.6867 116.273L72.5528 115.805L73.0215 116.173C73.2726 116.391 73.892 116.876 74.3774 117.278Z" fill="#EBEDF0"/>
<path d="M75.951 87.5147C75.7668 87.5817 75.499 87.8998 75.3818 88.1843C75.1809 88.653 75.1977 88.8037 75.3985 89.172C75.9175 90.0927 80.5544 92.2353 84.5049 93.3569C86.8987 94.0432 90.9831 94.8802 91.9875 94.8802C92.8747 94.8802 93.2932 94.4952 93.2932 93.6917C93.2932 92.7877 92.8915 92.5701 90.3638 92.1181C85.7102 91.2812 81.86 90.0424 78.5958 88.335C76.6205 87.3139 76.5201 87.2804 75.951 87.5147Z" fill="#EBEDF0"/>
<path d="M125.216 88.2011C124.446 88.6531 124.529 89.9588 125.366 90.3438C125.952 90.6116 126.17 90.5781 126.672 90.1764C127.844 89.2557 126.505 87.4478 125.216 88.2011Z" fill="#EBEDF0"/>
<path d="M117.616 90.6953C116.879 90.9966 116.662 92.1349 117.231 92.7041C118.285 93.7587 120.043 92.2521 119.039 91.1473C118.587 90.6451 118.118 90.4944 117.616 90.6953Z" fill="#EBEDF0"/>
<path d="M76.1183 108.272C75.6831 108.439 75.2144 109.075 75.2144 109.494C75.2144 110.063 76.1853 110.783 78.261 111.787C81.6759 113.428 85.3753 114.566 89.9285 115.403C92.3223 115.838 92.339 115.838 92.7742 115.503C93.2597 115.152 93.4271 114.365 93.1258 113.813C92.9416 113.444 92.5064 113.311 90.1126 112.875C86.0449 112.139 82.1948 110.917 78.8971 109.31C77.6583 108.707 76.6037 108.188 76.5535 108.171C76.5033 108.155 76.3024 108.205 76.1183 108.272Z" fill="#EBEDF0"/>
<path d="M125.299 108.891C124.948 109.025 124.58 109.912 124.697 110.364C124.931 111.268 126.103 111.586 126.739 110.9C127.676 109.896 126.588 108.372 125.299 108.891Z" fill="#EBEDF0"/>
<path d="M117.231 111.787C116.494 112.524 117.03 113.846 118.068 113.846C119.189 113.846 119.725 112.591 118.955 111.737C118.587 111.352 117.649 111.369 117.231 111.787Z" fill="#EBEDF0"/>
<path d="M75.5659 129.464C74.8628 130.352 75.2143 130.954 76.9552 131.925C80.3869 133.85 85.7938 135.574 90.9998 136.411C92.2218 136.595 92.339 136.595 92.7575 136.277C93.0588 136.043 93.2262 135.758 93.2596 135.373C93.3433 134.453 92.8412 134.135 90.8659 133.817C86.5136 133.097 82.2952 131.791 79.0644 130.167C77.8257 129.548 76.6037 129.029 76.3526 129.029C76.068 129.029 75.7835 129.196 75.5659 129.464Z" fill="#EBEDF0"/>
<path d="M125.099 130C124.513 130.603 124.462 131.004 124.948 131.607C125.199 131.925 125.45 132.042 125.869 132.042C127.375 132.042 127.559 129.95 126.069 129.598C125.701 129.514 125.517 129.598 125.099 130Z" fill="#EBEDF0"/>
<path d="M117.264 132.595C116.745 133.147 116.779 133.934 117.331 134.369C117.582 134.57 117.884 134.721 118.001 134.721C118.47 134.721 119.056 134.319 119.24 133.9C119.742 132.662 118.168 131.624 117.264 132.595Z" fill="#EBEDF0"/>
</g>
<defs>
<linearGradient id="paint0_linear_25_2" x1="-12.4346" y1="91.2148" x2="228.124" y2="92.0983" gradientUnits="userSpaceOnUse">
<stop stop-color="#515B95"/>
<stop offset="1" stop-color="#000835"/>
</linearGradient>
<clipPath id="clip0_25_2">
<rect width="204" height="204" fill="white"/>
</clipPath>
</defs>
</svg>
