<svg width="451" height="337" viewBox="0 0 451 337" fill="none" xmlns="http://www.w3.org/2000/svg">
<g clip-path="url(#clip0_3_2)">
<path d="M305.54 210.545C301.156 238.442 293.861 264.902 279.135 288.83C271.274 301.604 261.73 312.873 248.614 320.538C231.518 330.528 214.131 330.712 196.871 320.95C182.546 312.847 172.638 300.481 163.714 285.636C171.267 284.953 178.064 284.204 184.881 283.874C185.834 283.828 186.901 285.82 187.891 286.892C192.282 291.643 196.198 296.966 201.138 301.051C214.778 312.33 230.765 311.999 244.418 300.596C257.345 289.8 264.981 275.41 270.775 260.021C279.639 236.478 283.916 212.006 285.141 186.884C286.481 159.429 284.782 132.311 278.071 105.59C277.962 105.157 278.197 104.637 278.475 102.857C289.494 110.78 300.243 117.989 310.416 125.935C330.706 141.783 347.922 160.392 359.453 183.713C364.437 193.794 367.777 204.373 368.156 215.745C368.784 234.572 361.342 249.422 345.894 260.052C332.227 269.456 316.707 273.143 299.25 274.274C301.837 267.194 303.94 260.842 306.598 254.73C307.054 253.681 309.882 253.694 311.595 253.155C318.378 251.018 325.586 249.711 331.842 246.533C346.258 239.21 352.11 225.37 348.557 209.572C345.403 195.552 337.991 183.738 328.787 173.079C322.554 165.861 315.51 159.344 309.028 152.716C307.882 172.094 306.759 191.104 305.54 210.545Z" fill="#FBFCFC"/>
<path d="M151.995 80.993C158.541 64.2509 166.604 48.8143 178.669 35.8187C190.744 22.8123 204.857 13.688 223.445 14.0146C239.81 14.3021 252.829 22.0503 263.717 33.4271C270.097 40.0928 275.412 47.7771 282.199 56.242C273.708 57.0355 267.027 57.8241 260.325 58.123C259.217 58.1724 257.83 56.2166 256.884 54.9536C250.422 46.326 243.359 38.333 232.833 34.6573C217.809 29.4106 205.672 35.1462 195.524 45.831C180.56 61.586 173.218 81.2529 167.477 102.781C172.016 100.417 175.731 98.4749 179.452 96.544C206.982 82.2581 235.918 72.3244 266.805 68.5488C289.386 65.7885 311.737 66.2813 333.148 75.0425C362.069 86.8774 374.246 112.32 365.549 142.374C364.167 147.147 362.135 151.734 360.331 156.379C359.876 157.551 359.14 158.613 358.299 160.157C353.991 154.782 349.885 149.805 346.005 144.659C345.437 143.906 345.713 142.291 345.988 141.171C346.898 137.463 348.398 133.858 348.937 130.109C351.377 113.166 344.296 100.525 328.495 93.6509C311.926 86.4432 294.479 86.2551 277.037 88.5677C225.741 95.3694 180.761 116.752 140.497 148.722C139.617 149.421 138.723 150.101 137.218 151.27C138.856 126.759 143.698 103.718 151.995 80.993Z" fill="#FBFBFC"/>
<path d="M124.052 177.946C160.883 214.563 205.176 236.946 255.689 250.166C251.1 252.255 247.372 254.06 243.558 255.658C239.573 257.327 235.537 258.884 231.468 260.336C202.019 270.848 171.873 277.511 140.457 273.743C129.706 272.454 118.759 269.707 108.8 265.498C82.8445 254.529 71.4512 229.949 78.5701 202.348C80.3104 195.6 83.1043 189.124 85.893 181.154C91.0718 187.587 95.1789 192.474 98.9589 197.603C99.5611 198.42 98.7297 200.325 98.5011 201.717C97.457 208.075 95.2697 214.481 95.5604 220.775C96.2268 235.204 105.223 243.973 118.04 249.089C133.971 255.448 150.599 255.25 167.275 253.503C173.965 252.802 180.589 251.475 187.504 250.393C174.935 242.886 162.614 236.294 151.107 228.499C125.358 211.056 102.74 190.384 87.5846 162.64C82.0379 152.486 77.9201 141.809 76.9222 130.176C74.8485 106.003 85.3453 86.8215 107.59 77.108C117.646 72.7171 128.852 70.9389 139.575 68.1248C141.228 67.6911 143.092 68.0642 145.468 68.0642C143.04 74.6294 140.956 80.7282 138.438 86.642C137.989 87.6975 135.791 88.1634 134.311 88.5985C128.115 90.4204 121.597 91.4622 115.721 94.0023C99.1329 101.173 92.1107 116.13 96.5378 133.661C100.656 149.971 110.327 162.99 121.41 175.143C122.196 176.004 123.011 176.838 124.052 177.946Z" fill="#FBFCFC"/>
</g>
<defs>
<clipPath id="clip0_3_2">
<rect width="451" height="337" fill="white"/>
</clipPath>
</defs>
</svg>
