<svg width="204" height="204" viewBox="0 0 204 204" fill="none" xmlns="http://www.w3.org/2000/svg">
<g clip-path="url(#clip0_12_73)">
<path d="M187.639 69.9024C193.092 67.8589 199.226 70.6146 200.696 76.2487C206.238 97.4866 204.802 120.051 196.436 140.546C186.737 164.31 168.435 183.543 145.182 194.409C121.928 205.275 95.4335 206.975 70.9823 199.169C46.5311 191.364 25.9213 174.628 13.2644 152.299C0.607559 129.97 -3.16595 103.69 2.69673 78.7019C8.55941 53.7137 23.6272 31.8543 44.8943 17.4845C66.1614 3.11471 92.0643 -2.70908 117.435 1.17496C139.317 4.52476 159.415 14.883 174.791 30.5469C178.869 34.7023 178.083 41.3808 173.529 45.0093C168.975 48.6377 162.385 47.8275 158.195 43.7835C146.212 32.2158 130.877 24.5645 114.244 22.0182C94.1183 18.9371 73.5703 23.5569 56.6996 34.9561C39.829 46.3553 27.876 63.6958 23.2253 83.5183C18.5746 103.34 21.5681 124.188 31.6084 141.901C41.6488 159.614 57.9981 172.89 77.3945 179.082C96.791 185.274 117.809 183.925 136.255 175.305C154.701 166.686 169.219 151.429 176.914 132.578C183.273 116.999 184.584 99.912 180.815 83.6883C179.497 78.0167 182.187 71.946 187.639 69.9024Z" fill="url(#paint0_linear_12_73)"/>
<path d="M65.9678 62.1028C65.1709 62.3021 63.7598 63.1321 63.3115 63.6634C63.0791 63.9456 62.6973 64.5433 62.4482 65.0081L62 65.8548V79.2191V92.5833L62.4482 93.43C63.1123 94.6917 63.6104 95.2064 64.7725 95.8372L65.8184 96.4017H73.8701H81.9219L82.9678 95.8372C84.1299 95.2064 84.6279 94.6917 85.292 93.43L85.7402 92.5833V79.2191V65.8548L85.292 65.0081C84.6279 63.7464 84.1299 63.2318 82.9678 62.6009L81.9219 62.0364L74.2021 62.0032C69.9521 61.9866 66.25 62.0364 65.9678 62.1028ZM81.5732 64.8421C81.8721 64.9749 82.3369 65.3568 82.6025 65.7054L83.084 66.3196L83.1338 69.4573L83.1836 72.5784H73.8867H64.5732V69.6898C64.5732 66.6849 64.6729 66.137 65.2871 65.4564C66.0508 64.6263 66.1504 64.6263 73.8369 64.6097C79.6143 64.6097 81.125 64.6595 81.5732 64.8421ZM83.1338 83.6849C83.084 91.9359 83.0674 92.1517 82.7354 92.5999C82.5527 92.8489 82.1875 93.2142 81.9385 93.3968C81.4902 93.7454 81.3076 93.7454 73.8867 93.7454H66.2832L65.6689 93.264C64.5566 92.4173 64.5732 92.5833 64.5732 83.4525V75.2347H73.8701H83.1836L83.1338 83.6849Z" fill="white"/>
<path d="M67.2295 68.5941V69.9222H69.8857H72.542V68.5941V67.2659H69.8857H67.2295V68.5941Z" fill="white"/>
<path d="M75.1982 68.5941V69.9222H77.8545H80.5107V68.5941V67.2659H77.8545H75.1982V68.5941Z" fill="white"/>
<path d="M67.2295 79.2191V80.5472H69.8857H72.542V79.2191V77.8909H69.8857H67.2295V79.2191Z" fill="white"/>
<path d="M75.1982 79.2191V80.5472H77.8545H80.5107V79.2191V77.8909H77.8545H75.1982V79.2191Z" fill="white"/>
<path d="M67.2295 84.5316V85.8597H69.8857H72.542V84.5316V83.2034H69.8857H67.2295V84.5316Z" fill="white"/>
<path d="M75.1982 84.5316V85.8597H76.5264H77.8545V84.5316V83.2034H76.5264H75.1982V84.5316Z" fill="white"/>
<path d="M67.2295 89.8441V91.1722H69.8857H72.542V89.8441V88.5159H69.8857H67.2295V89.8441Z" fill="white"/>
<path d="M75.1982 89.8441V91.1722H77.8545H80.5107V89.8441V88.5159H77.8545H75.1982V89.8441Z" fill="white"/>
<path d="M103.155 79.3685C102.358 79.5677 100.947 80.3978 100.499 80.929C100.267 81.2112 99.8848 81.8089 99.6357 82.2737L99.1875 83.1204V93.8284V104.536L99.752 105.582C100.383 106.744 100.897 107.242 102.159 107.907L103.006 108.355H108.401H113.797L114.644 107.907C115.905 107.242 116.42 106.744 117.051 105.582L117.615 104.536V93.8284V83.1204L117.167 82.2737C116.503 81.012 116.005 80.4974 114.843 79.8665L113.797 79.3021L108.733 79.2689C105.944 79.2523 103.438 79.3021 103.155 79.3685ZM113.448 82.1077C113.747 82.2405 114.212 82.6224 114.478 82.971L114.959 83.5853L115.009 86.723L115.059 89.8441H108.418H101.761V86.9554C101.761 83.9505 101.86 83.4026 102.475 82.722C103.205 81.9417 103.537 81.8919 108.368 81.8753C111.871 81.8753 113.017 81.9251 113.448 82.1077ZM115.009 98.2943C114.959 103.856 114.942 104.121 114.61 104.553C114.428 104.802 114.062 105.167 113.813 105.35C113.382 105.682 113.149 105.699 108.418 105.699H103.471L102.856 105.217C101.777 104.404 101.761 104.271 101.761 98.0618V92.5003H108.401H115.059L115.009 98.2943Z" fill="white"/>
<path d="M104.417 85.8597V87.1878H107.073H109.729V85.8597V84.5316H107.073H104.417V85.8597Z" fill="white"/>
<path d="M104.417 96.4847V97.8128H107.073H109.729V96.4847V95.1566H107.073H104.417V96.4847Z" fill="white"/>
<path d="M104.417 101.797V103.125H107.073H109.729V101.797V100.469H107.073H104.417V101.797Z" fill="white"/>
<path d="M127.062 79.3685C126.265 79.5677 124.854 80.3978 124.405 80.929C124.173 81.2112 123.791 81.8089 123.542 82.2737L123.094 83.1204V93.8284V104.536L123.658 105.582C124.289 106.744 124.804 107.242 126.065 107.907L126.912 108.355H132.308H137.703L138.55 107.907C139.812 107.242 140.326 106.744 140.957 105.582L141.521 104.536V93.8284V83.1204L141.073 82.2737C140.409 81.012 139.911 80.4974 138.749 79.8665L137.703 79.3021L132.64 79.2689C129.851 79.2523 127.344 79.3021 127.062 79.3685ZM137.354 82.1077C137.653 82.2405 138.118 82.6224 138.384 82.971L138.865 83.5853L138.915 86.723L138.965 89.8441H132.324H125.667V86.9554C125.667 83.9505 125.767 83.4026 126.381 82.722C127.111 81.9417 127.443 81.8919 132.274 81.8753C135.777 81.8753 136.923 81.9251 137.354 82.1077ZM138.915 98.2943C138.865 103.856 138.849 104.121 138.517 104.553C138.334 104.802 137.969 105.167 137.72 105.35C137.288 105.682 137.056 105.699 132.324 105.699H127.377L126.763 105.217C125.684 104.404 125.667 104.271 125.667 98.0618V92.5003H132.308H138.965L138.915 98.2943Z" fill="white"/>
<path d="M128.323 85.8597V87.1878H130.979H133.636V85.8597V84.5316H130.979H128.323V85.8597Z" fill="white"/>
<path d="M128.323 96.4847V97.8128H130.979H133.636V96.4847V95.1566H130.979H128.323V96.4847Z" fill="white"/>
<path d="M128.323 101.797V103.125H130.979H133.636V101.797V100.469H130.979H128.323V101.797Z" fill="white"/>
<path d="M87.1514 83.1868V84.5316H88.0645C90.0068 84.5316 90.9033 85.3782 91.1523 87.47C91.5342 90.5081 93.3936 92.2679 96.3984 92.4671L97.7764 92.5501V91.222V89.8773L96.6309 89.8109C95.7012 89.761 95.3857 89.6614 94.9043 89.2962C94.1074 88.6819 93.9414 88.3665 93.7588 86.889C93.5098 84.7972 92.6299 83.4359 90.9531 82.5394C90.1064 82.0911 89.708 81.9915 88.5459 81.9085L87.1514 81.8255V83.1868Z" fill="white"/>
<path d="M119.026 92.5003V93.8284H120.354H121.683V92.5003V91.1722H120.354H119.026V92.5003Z" fill="white"/>
<path d="M107.106 113.219L107.156 116.672L107.771 117.934C108.518 119.445 109.48 120.374 111.024 121.105L112.137 121.636L116.918 121.686L121.683 121.736V120.408V119.063H117.433C114.577 119.063 112.95 118.996 112.485 118.864C111.572 118.598 110.194 117.22 109.929 116.307C109.812 115.875 109.729 114.514 109.729 112.688V109.766H108.385H107.04L107.106 113.219Z" fill="white"/>
<path d="M127.062 112.572C126.265 112.771 124.854 113.601 124.405 114.132C124.173 114.414 123.791 115.012 123.542 115.477L123.094 116.324V127.032V137.74L123.658 138.785C124.289 139.948 124.804 140.446 126.065 141.11L126.912 141.558H132.308H137.703L138.55 141.11C139.812 140.446 140.326 139.948 140.957 138.785L141.521 137.74V127.032V116.324L141.073 115.477C140.409 114.215 139.911 113.701 138.749 113.07L137.703 112.505L132.64 112.472C129.851 112.455 127.344 112.505 127.062 112.572ZM137.354 115.311C137.653 115.444 138.118 115.826 138.384 116.174L138.865 116.788L138.915 119.926L138.965 123.047H132.324H125.667V120.159C125.667 117.154 125.767 116.606 126.381 115.925C127.111 115.145 127.443 115.095 132.274 115.078C135.777 115.078 136.923 115.128 137.354 115.311ZM138.915 131.497C138.865 137.059 138.849 137.325 138.517 137.756C138.334 138.005 137.969 138.37 137.72 138.553C137.288 138.885 137.056 138.902 132.324 138.902H127.377L126.763 138.42C125.684 137.607 125.667 137.474 125.667 131.265V125.703H132.308H138.965L138.915 131.497Z" fill="white"/>
<path d="M128.323 119.063V120.391H130.979H133.636V119.063V117.735H130.979H128.323V119.063Z" fill="white"/>
<path d="M128.323 129.688V131.016H130.979H133.636V129.688V128.36H130.979H128.323V129.688Z" fill="white"/>
<path d="M128.323 135V136.328H130.979H133.636V135V133.672H130.979H128.323V135Z" fill="white"/>
</g>
<defs>
<linearGradient id="paint0_linear_12_73" x1="-12.4346" y1="91.2148" x2="228.124" y2="92.0983" gradientUnits="userSpaceOnUse">
<stop stop-color="#AA367C"/>
<stop offset="1" stop-color="#000835"/>
</linearGradient>
<clipPath id="clip0_12_73">
<rect width="204" height="204" fill="white"/>
</clipPath>
</defs>
</svg>
