<svg width="204" height="204" viewBox="0 0 204 204" fill="none" xmlns="http://www.w3.org/2000/svg">
<g clip-path="url(#clip0_11_48)">
<path d="M187.639 69.9024C193.092 67.8589 199.226 70.6146 200.696 76.2487C206.238 97.4866 204.802 120.051 196.436 140.546C186.737 164.31 168.435 183.543 145.182 194.409C121.928 205.275 95.4335 206.975 70.9823 199.169C46.5311 191.364 25.9213 174.628 13.2644 152.299C0.607559 129.97 -3.16595 103.69 2.69673 78.7019C8.55941 53.7137 23.6272 31.8543 44.8943 17.4845C66.1614 3.11471 92.0643 -2.70908 117.435 1.17496C139.317 4.52476 159.415 14.883 174.791 30.5469C178.869 34.7023 178.083 41.3808 173.529 45.0093C168.975 48.6377 162.385 47.8275 158.195 43.7835C146.212 32.2158 130.877 24.5645 114.244 22.0182C94.1183 18.9371 73.5703 23.5569 56.6996 34.9561C39.829 46.3553 27.876 63.6958 23.2253 83.5183C18.5746 103.34 21.5681 124.188 31.6084 141.901C41.6488 159.614 57.9981 172.89 77.3945 179.082C96.791 185.274 117.809 183.925 136.255 175.305C154.701 166.686 169.219 151.429 176.914 132.578C183.273 116.999 184.584 99.912 180.815 83.6883C179.497 78.0167 182.187 71.946 187.639 69.9024Z" fill="url(#paint0_linear_11_48)"/>
<path d="M114.133 60.1328C112.755 60.5646 111.626 61.6771 111.244 62.989C111.028 63.703 110.978 64.8321 110.978 68.9669V74.0647L108.371 74.1311C105.482 74.2142 105 74.3304 103.938 75.2603C103.606 75.5592 103.157 76.1238 102.958 76.4891C102.593 77.1699 102.593 77.1865 102.543 89.0759L102.493 100.999H99.6867H96.8804L96.8306 92.314C96.7808 82.3176 96.897 83.0648 95.0372 81.3544C91.135 77.7345 80.4744 76.0573 71.3082 77.6016C65.2473 78.6146 61.2122 80.7733 60.2325 83.5131C60.0498 84.0279 60.0166 87.432 60 102.178V120.194L60.4317 121.058C61.6273 123.482 65.6292 125.242 72.0389 126.189C75.1108 126.637 82.1847 126.587 85.3231 126.106C91.8822 125.076 95.9671 123.05 96.6978 120.46C96.7974 120.078 96.8638 116.873 96.8638 111.908V103.988H99.6867H102.493L102.543 115.91C102.593 127.8 102.593 127.816 102.958 128.497C103.157 128.862 103.606 129.427 103.938 129.726C105 130.656 105.482 130.772 108.371 130.855L110.978 130.921V136.019C110.978 141.798 111.061 142.396 112.091 143.525C112.423 143.89 113.004 144.355 113.37 144.554L114.05 144.92H127.999C141.283 144.92 141.981 144.903 142.528 144.604C143.342 144.172 144.156 143.375 144.571 142.595C144.92 141.947 144.936 141.731 144.986 135.388C145.036 128.165 145.003 127.899 144.006 126.687C143.724 126.338 143.176 125.89 142.811 125.691C142.13 125.342 141.931 125.325 135.521 125.242L128.912 125.159L128.53 124.744C128.265 124.462 128.065 123.98 127.949 123.283C127.6 121.257 126.405 119.995 124.478 119.597C123.897 119.464 121.938 119.43 118.899 119.464L114.216 119.513L113.37 119.962C111.477 120.958 110.978 122.154 110.978 125.707V128.098L108.554 128.032C106.13 127.982 106.13 127.982 105.731 127.517L105.333 127.052V115.512V103.988H108.155H110.978V107.691C110.978 112.174 111.095 112.755 112.307 113.951C113.685 115.329 112.988 115.279 127.999 115.279C142.645 115.279 142.279 115.312 143.541 114.167C143.907 113.834 144.372 113.253 144.571 112.888C144.936 112.224 144.936 112.074 144.936 105.316C144.936 98.541 144.936 98.4081 144.571 97.7439C144.372 97.3786 143.923 96.814 143.591 96.5151C142.346 95.4358 142.429 95.4524 135.289 95.3527C127.783 95.2531 128.198 95.3527 127.999 93.7088C127.866 92.5464 127.169 91.2346 126.355 90.6202C125.276 89.79 124.611 89.7069 119.53 89.7069C113.967 89.7069 113.536 89.79 112.307 91.0354C111.095 92.2309 110.978 92.8121 110.978 97.2956V100.999H108.155H105.333V89.4745V77.9338L105.731 77.4688C106.13 77.0039 106.13 77.0039 108.554 76.954L110.978 76.8876V79.2788C110.978 82.8323 111.427 83.9283 113.32 84.9744L114.216 85.4726H127.999C140.27 85.4726 141.848 85.4394 142.362 85.2069C143.226 84.8084 143.973 84.1275 144.488 83.2475L144.936 82.4836V75.5924C144.936 68.8506 144.936 68.6846 144.571 68.037C144.156 67.2565 143.342 66.4595 142.528 66.0277C141.997 65.7454 141.366 65.7122 135.355 65.6292C129.477 65.5628 128.729 65.513 128.48 65.2639C128.331 65.1144 128.098 64.4502 127.966 63.7694C127.717 62.4244 127.235 61.5609 126.338 60.8967C125.226 60.0332 124.894 60 119.53 60C116.79 60.0166 114.366 60.0664 114.133 60.1328ZM124.462 62.989C124.86 63.2048 125.259 64.1015 125.259 64.7657C125.259 65.9779 126.338 67.4392 127.667 68.0536C128.497 68.4521 128.547 68.4521 134.857 68.4521H141.233L141.715 68.9337L142.196 69.4152V75.5094C142.196 79.5445 142.13 81.7032 142.014 81.9356C141.582 82.7327 141.582 82.7327 127.999 82.7327C114.117 82.7327 114.382 82.7493 113.984 81.8028C113.851 81.4375 113.801 79.0463 113.834 72.454L113.884 63.6034L114.349 63.2048L114.814 62.8063H119.464C122.486 62.8063 124.229 62.8727 124.462 62.989ZM81.6866 79.9928C86.6349 80.2419 91.683 81.836 93.3767 83.6626C94.124 84.4763 94.1738 84.7419 93.7254 85.4892C92.8121 87.0003 89.4246 88.4283 84.908 89.2254C82.4504 89.6571 77.2861 89.8232 74.5297 89.5575C69.4982 89.0593 65.3801 87.7475 63.62 86.0372C62.7399 85.2069 62.6402 84.7585 63.1218 84.0113C64.1015 82.5334 67.8045 80.9891 72.0389 80.3083C73.8488 80.026 77.6515 79.7769 79.0961 79.8434C79.5943 79.8766 80.7733 79.943 81.6866 79.9928ZM66.2768 90.7032C73.7658 93.4265 85.9209 93.0612 92.4302 89.9062L94.0409 89.1091V93.0612V96.9967L93.5428 97.5612C92.5464 98.707 89.5907 99.8196 85.6054 100.534C83.7124 100.866 82.9818 100.916 78.4319 100.916C73.8488 100.916 73.168 100.882 71.2252 100.534C67.3396 99.8196 64.7823 98.9063 63.5037 97.7605L62.8229 97.1461V93.111V89.0759L63.9023 89.6571C64.5 89.9726 65.5628 90.4376 66.2768 90.7032ZM124.412 92.7789C124.927 93.028 125.259 93.7586 125.259 94.5557C125.259 95.5852 126.189 96.9635 127.384 97.7107C127.999 98.0926 128.082 98.0926 134.691 98.1756L141.399 98.2587L141.798 98.7236L142.196 99.1886V105.316V111.443L141.798 111.908L141.399 112.373H128.015H114.648L114.266 111.991L113.884 111.609L113.851 102.692C113.801 93.1276 113.801 93.1608 114.632 92.7457C115.279 92.4136 123.781 92.4468 124.412 92.7789ZM63.2546 100.982C63.5868 101.314 65.9945 102.211 67.7215 102.659C75.692 104.718 87.2493 104.104 92.945 101.314C93.4763 101.048 93.9413 100.832 93.9745 100.832C94.0077 100.832 94.0409 102.543 94.0409 104.635V108.438L93.5096 108.986C92.2642 110.231 88.4947 111.493 84.3268 112.058C81.3545 112.456 75.5094 112.456 72.537 112.058C68.4355 111.493 64.6827 110.248 63.3709 109.019L62.8229 108.504V104.668C62.8229 102.559 62.8893 100.832 62.9557 100.832C63.0222 100.832 63.155 100.899 63.2546 100.982ZM66.31 113.585C69.8137 114.698 73.4835 115.18 78.5149 115.18C84.6755 115.163 89.159 114.382 92.8453 112.705L94.0409 112.141V115.877C94.0409 118.218 93.9745 119.746 93.8583 119.945C93.5428 120.543 91.7826 121.523 89.9394 122.137C84.194 124.047 75.1275 124.263 68.6846 122.669C65.9613 121.988 63.6864 120.925 63.0886 120.061C62.8727 119.746 62.8229 119.098 62.8229 115.91V112.124L63.786 112.606C64.3008 112.871 65.4465 113.303 66.31 113.585ZM124.661 122.735C124.943 123.001 125.109 123.383 125.176 123.897C125.408 125.707 126.272 126.953 127.733 127.633C128.464 127.966 128.829 127.982 135.006 128.065C140.968 128.148 141.549 128.181 141.814 128.447C142.097 128.713 142.113 129.244 142.163 134.973L142.213 141.2L141.715 141.682L141.233 142.18H128.015H114.814L114.349 141.781L113.884 141.383L113.834 132.532C113.801 125.94 113.851 123.549 113.984 123.183C114.349 122.32 114.764 122.253 119.729 122.303C124.229 122.336 124.229 122.336 124.661 122.735Z" fill="white"/>
<path d="M117.504 71.4411C117.023 71.6403 116.574 72.5204 116.724 72.9854C116.774 73.1846 116.99 73.5167 117.172 73.716C117.903 74.5297 119.447 73.9485 119.447 72.8525C119.447 72.0721 119.314 71.7898 118.766 71.5241C118.235 71.2418 118.036 71.2252 117.504 71.4411Z" fill="white"/>
<path d="M117.521 77.1533C116.574 77.5684 116.425 78.8969 117.255 79.5113C117.72 79.8766 118.683 79.7936 119.082 79.3618C120.111 78.2659 118.899 76.5555 117.521 77.1533Z" fill="white"/>
<path d="M66.1772 94.3564C65.4133 95.0705 65.5628 96.1332 66.4927 96.6646C67.3396 97.1461 68.4687 96.4321 68.4687 95.4026C68.4687 94.2402 67.0241 93.576 66.1772 94.3564Z" fill="white"/>
<path d="M117.272 101.331C116.79 101.613 116.558 102.427 116.79 102.991C117.039 103.606 117.405 103.821 118.168 103.821C119.314 103.821 119.912 102.327 119.065 101.53C118.65 101.148 117.753 101.048 117.272 101.331Z" fill="white"/>
<path d="M117.255 107.043C116.442 107.657 116.574 108.936 117.488 109.401C118.833 110.098 120.161 108.205 119.065 107.176C118.633 106.761 117.704 106.694 117.255 107.043Z" fill="white"/>
<path d="M66.1274 105.798C65.4964 106.429 65.4964 107.026 66.1274 107.657C66.7584 108.272 67.489 108.305 68.0536 107.724C68.9503 106.827 68.2695 105.316 66.9742 105.316C66.775 105.316 66.3931 105.532 66.1274 105.798Z" fill="white"/>
<path d="M66.476 116.823C65.1642 117.488 65.596 119.43 67.0572 119.43C68.2694 119.43 68.8838 118.102 68.1034 117.205C67.6384 116.691 67.024 116.541 66.476 116.823Z" fill="white"/>
<path d="M117.172 131.253C116.674 131.818 116.574 132.3 116.857 132.848C117.139 133.412 117.936 133.794 118.451 133.628C119.48 133.296 119.812 131.868 119.015 131.237C118.418 130.772 117.604 130.789 117.172 131.253Z" fill="white"/>
<path d="M117.189 136.933C115.943 137.995 117.288 139.872 118.75 139.124C119.58 138.693 119.713 137.613 119.032 136.949C118.517 136.418 117.787 136.418 117.189 136.933Z" fill="white"/>
</g>
<defs>
<linearGradient id="paint0_linear_11_48" x1="-12.4346" y1="91.2148" x2="228.124" y2="92.0983" gradientUnits="userSpaceOnUse">
<stop stop-color="#AA367C"/>
<stop offset="1" stop-color="#000835"/>
</linearGradient>
<clipPath id="clip0_11_48">
<rect width="204" height="204" fill="white"/>
</clipPath>
</defs>
</svg>
